<?xml version="1.0" encoding="utf-8"?>
<!-- Generator: Adobe Illustrator 24.0.2, SVG Export Plug-In . SVG Version: 6.00 Build 0)  -->
<svg version="1.1" id="Layer_1" xmlns="http://www.w3.org/2000/svg" xmlns:xlink="http://www.w3.org/1999/xlink" x="0px" y="0px"
	 viewBox="0 0 250 250" style="enable-background:new 0 0 250 250;" xml:space="preserve">
<style type="text/css">
	.st0{fill:#DCE1EB;}
	.st1{fill:#BEC3D2;}
	.st2{fill:#707789;}
	.st3{fill:#96E8FF;}
	.st4{fill:#FF636E;}
	.st5{fill:#19CFFC;}
	.st6{fill:#80DBFF;}
	.st7{fill:#F5CD62;}
	.st8{fill:#AFB4C8;}
	.st9{fill:none;}
	.st10{fill:#FFB13B;}
</style>
<g>
	<g>
		<g>
			<g>
				<g>
					<g>
						<circle class="st0" cx="67.6" cy="155.58" r="8.91"/>
					</g>
					<g>
						<path class="st1" d="M67.6,155.58c0-3.3,1.8-6.14,4.45-7.68c-1.31-0.76-2.82-1.23-4.45-1.23c-4.93,0-8.91,3.98-8.91,8.91
							c0,4.93,3.98,8.91,8.91,8.91c1.63,0,3.14-0.47,4.45-1.23C69.4,161.72,67.6,158.88,67.6,155.58z"/>
					</g>
					<g>
						<path class="st2" d="M67.6,173.4c-9.83,0-17.82-7.99-17.82-17.82c0-4.57,1.72-8.73,4.57-11.88c3.24-3.65,7.99-5.94,13.24-5.94
							s10.01,2.29,13.24,5.94c2.85,3.15,4.57,7.3,4.57,11.88C85.41,165.41,77.43,173.4,67.6,173.4z M67.6,146.67
							c-4.93,0-8.91,3.98-8.91,8.91s3.98,8.91,8.91,8.91s8.91-3.98,8.91-8.91S72.53,146.67,67.6,146.67z"/>
					</g>
				</g>
				<g>
					<g>
						<circle class="st0" cx="186.37" cy="155.58" r="8.91"/>
					</g>
					<g>
						<path class="st1" d="M186.37,155.58c0-3.3,1.8-6.14,4.45-7.68c-1.31-0.76-2.82-1.23-4.45-1.23c-4.93,0-8.91,3.98-8.91,8.91
							c0,4.93,3.98,8.91,8.91,8.91c1.63,0,3.14-0.47,4.45-1.23C188.17,161.72,186.37,158.88,186.37,155.58z"/>
					</g>
					<g>
						<path class="st2" d="M186.37,173.4c-9.83,0-17.82-7.99-17.82-17.82c0-4.57,1.72-8.73,4.57-11.88
							c3.24-3.65,7.99-5.94,13.24-5.94s10.01,2.29,13.24,5.94c2.85,3.15,4.57,7.3,4.57,11.88
							C204.18,165.41,196.2,173.4,186.37,173.4z M186.37,146.67c-4.93,0-8.91,3.98-8.91,8.91s3.98,8.91,8.91,8.91
							c4.93,0,8.91-3.98,8.91-8.91S191.3,146.67,186.37,146.67z"/>
					</g>
				</g>
			</g>
			<g>
				<g>
					<path class="st3" d="M216.06,119.95c0,0,2.97,0,2.97,5.94v2.97h-5.94c-3.27,0-5.94-2.67-5.94-5.94v-4.9
						C210,118.61,212.97,119.27,216.06,119.95z"/>
				</g>
				<g>
					<path class="st4" d="M52.75,122.92v5.94H37.91v-8.91c0,0,0-2.97,5.94-2.97h5.94C49.78,116.98,52.75,116.98,52.75,122.92z"/>
				</g>
				<g>
					<path class="st5" d="M79.48,93.23v17.82H58.69c0,0,2.97-11.88,11.88-17.82H79.48z"/>
				</g>
				<g>
					<rect x="79.48" y="93.23" class="st6" width="20.78" height="17.82"/>
				</g>
				<g>
					<path class="st3" d="M141.83,111.04h-41.57V93.23h17.82C129.95,102.14,141.83,111.04,141.83,111.04z"/>
				</g>
				<g>
					<path class="st3" d="M171.52,111.04h-14.85c0,0-11.88-8.91-23.75-17.82h17.82l0.24-0.36
						C157.48,97.24,165.08,103.29,171.52,111.04z"/>
				</g>
				<g>
					<path class="st7" d="M118.08,93.23h-17.82H79.48h-8.91c-8.91,5.94-11.88,17.82-11.88,17.82h20.78h20.78h41.57
						C141.83,111.04,129.95,102.14,118.08,93.23z M135.89,84.32c0,0,6.65,2.85,15.08,8.55l-0.24,0.36h-17.82
						c11.88,8.91,23.75,17.82,23.75,17.82h14.85c0,0,13.93,2.32,35.63,6.98v4.9c0,3.27,2.67,5.94,5.94,5.94h5.94v14.85h-19.42
						c-3.24-3.65-7.99-5.94-13.24-5.94s-10.01,2.29-13.24,5.94H80.84c-3.24-3.65-7.99-5.94-13.24-5.94s-10.01,2.29-13.24,5.94H37.91
						v-14.85h14.85v-5.94c0-5.94-2.97-5.94-2.97-5.94h-5.94c0,0,8.91-32.66,23.75-32.66S135.89,84.32,135.89,84.32z"/>
				</g>
				<g>
					<path class="st8" d="M219.03,143.7v5.94c0,3.27-2.67,5.94-5.94,5.94h-8.91c0-4.57-1.72-8.73-4.57-11.88H219.03z"/>
				</g>
				<g>
					<path class="st8" d="M80.84,143.7h92.28c-2.85,3.15-4.57,7.3-4.57,11.88H85.41C85.41,151.01,83.69,146.85,80.84,143.7z"/>
				</g>
				<g>
					<path class="st8" d="M37.91,143.7h16.45c-2.85,3.15-4.57,7.3-4.57,11.88H37.91c0,0-2.97,0-2.97-2.97s0-5.94,0-5.94L37.91,143.7
						z"/>
				</g>
			</g>
		</g>
		<g>
			<g>
				<path class="st9" d="M100.26,93.23H79.48h-8.91c-8.91,5.94-11.88,17.82-11.88,17.82h20.78h20.78h41.57
					c0,0-11.88-8.91-23.75-17.82H100.26z"/>
			</g>
			<g>
				<path class="st10" d="M207.98,125.89H52.75v2.97H37.91v14.85h16.45c3.24-3.65,7.99-5.94,13.24-5.94
					c5.26,0,10.01,2.29,13.24,5.94h92.28c3.24-3.65,7.99-5.94,13.24-5.94s10.01,2.29,13.24,5.94h19.42v-14.85h-5.94
					C210.91,128.86,209.02,127.65,207.98,125.89z"/>
			</g>
		</g>
	</g>
	<g>
		<path d="M216.66,117.04c-22.79-5.06-39.31-8-43.57-8.74c-15.06-17.59-35.17-26.34-36.03-26.71c-0.37-0.16-0.77-0.24-1.17-0.24
			H67.6c-14.84,0-23.61,24.9-26.02,32.81c-6.55,0.88-6.64,5.58-6.64,5.79v22.52l-2.1,2.1c-0.56,0.56-0.87,1.31-0.87,2.1v5.94
			c0,3.86,3.06,5.94,5.94,5.94h9.14c1.45,10.06,10.1,17.82,20.55,17.82s19.1-7.76,20.55-17.82h77.68
			c1.45,10.06,10.1,17.82,20.55,17.82s19.1-7.76,20.55-17.82h6.18c4.91,0,8.91-4,8.91-8.91v-23.75
			C222,118.67,218.17,117.3,216.66,117.04z M215.5,122.87c0.16,0.23,0.56,1.01,0.56,3.02h-2.97c-1.64,0-2.97-1.33-2.97-2.97v-1.23
			c1.73,0.37,3.49,0.76,5.29,1.16C215.45,122.86,215.48,122.86,215.5,122.87z M164.8,108.07h-7.14L141.83,96.2h8.74
			C155.13,99.35,160.12,103.32,164.8,108.07z M67.6,87.29h67.66c0.92,0.42,3.01,1.43,5.78,2.97h-8.11c-1.28,0-2.41,0.82-2.82,2.03
			c-0.4,1.21,0.01,2.55,1.04,3.31l23.75,17.82c0.51,0.39,1.14,0.59,1.78,0.59h14.6c1.86,0.32,14.35,2.47,32.91,6.4v2.51
			c0,4.91,4,8.91,8.91,8.91h2.97v8.91h-15.17c-3.75-3.67-8.87-5.94-14.52-5.94s-10.77,2.27-14.52,5.94H82.12
			c-3.75-3.67-8.87-5.94-14.52-5.94s-10.77,2.27-14.52,5.94h-12.2v-8.91h11.88c1.64,0,2.97-1.33,2.97-2.97v-5.94
			c0-8.81-5.7-8.91-5.94-8.91h-1.92C51.11,104.36,58.68,87.29,67.6,87.29z M86.35,146.67h81.27c-0.88,1.85-1.49,3.84-1.8,5.94H88.15
			C87.84,150.52,87.23,148.52,86.35,146.67z M43.84,119.95h5.42c0.17,0.29,0.52,1.09,0.52,2.97v2.97h-8.91v-5.42
			C41.16,120.3,41.97,119.95,43.84,119.95z M37.91,147.9l1.23-1.23h9.71c-0.88,1.85-1.49,3.84-1.8,5.94h-9.14V147.9z M67.6,170.43
			c-8.19,0-14.85-6.66-14.85-14.85s6.66-14.85,14.85-14.85s14.85,6.66,14.85,14.85S75.78,170.43,67.6,170.43z M186.37,170.43
			c-8.19,0-14.85-6.66-14.85-14.85s6.66-14.85,14.85-14.85s14.85,6.66,14.85,14.85S194.55,170.43,186.37,170.43z M213.09,152.61
			h-6.18c-0.3-2.1-0.92-4.09-1.8-5.94h10.94v2.97C216.06,151.28,214.73,152.61,213.09,152.61z"/>
		<path d="M67.6,143.7c-6.55,0-11.88,5.33-11.88,11.88c0,6.55,5.33,11.88,11.88,11.88s11.88-5.33,11.88-11.88
			C79.48,149.03,74.15,143.7,67.6,143.7z M67.6,161.52c-3.28,0-5.94-2.66-5.94-5.94s2.66-5.94,5.94-5.94c3.28,0,5.94,2.66,5.94,5.94
			S70.87,161.52,67.6,161.52z"/>
		<path d="M186.37,143.7c-6.55,0-11.88,5.33-11.88,11.88c0,6.55,5.33,11.88,11.88,11.88c6.55,0,11.88-5.33,11.88-11.88
			C198.25,149.03,192.92,143.7,186.37,143.7z M186.37,161.52c-3.28,0-5.94-2.66-5.94-5.94s2.66-5.94,5.94-5.94
			c3.28,0,5.94,2.66,5.94,5.94S189.64,161.52,186.37,161.52z"/>
		<path d="M58.69,114.01h83.14c1.28,0,2.41-0.82,2.82-2.03c0.4-1.21-0.01-2.55-1.04-3.31l-23.75-17.82
			c-0.51-0.39-1.14-0.59-1.78-0.59H70.57c-0.59,0-1.16,0.17-1.65,0.5c-9.75,6.5-12.98,19.03-13.11,19.57
			c-0.22,0.89-0.02,1.83,0.54,2.55C56.91,113.59,57.78,114.01,58.69,114.01z M82.44,108.07V96.2h14.85v11.88H82.44z M132.92,108.07
			h-29.69V96.2h13.86L132.92,108.07z M71.5,96.2h5v11.88H62.86C64.3,104.62,67.02,99.51,71.5,96.2z"/>
		<rect x="61.66" y="122.92" width="5.94" height="5.94"/>
		<rect x="73.54" y="122.92" width="97.99" height="5.94"/>
	</g>
</g>
</svg>
