<?xml version="1.0" encoding="utf-8"?>
<!-- Generator: Adobe Illustrator 24.0.2, SVG Export Plug-In . SVG Version: 6.00 Build 0)  -->
<svg version="1.1" id="Layer_1" xmlns="http://www.w3.org/2000/svg" xmlns:xlink="http://www.w3.org/1999/xlink" x="0px" y="0px"
	 viewBox="0 0 250 250" style="enable-background:new 0 0 250 250;" xml:space="preserve">
<style type="text/css">
	.st0{fill:#FDC917;}
	.st1{fill:#FFFFFF;}
	.st2{fill:#C5E5FE;}
	.st3{fill:#FACB35;}
	.st4{fill:#FCAC27;}
	.st5{fill:#E6E7E8;}
</style>
<g>
	<path class="st0" d="M190.18,139.15c-0.81,3.05-2.02,5.95-3.57,8.62l5.65,5.65c-3.28,5.06-7.6,9.38-12.66,12.65l-5.65-5.65
		c-2.67,1.56-5.56,2.77-8.62,3.57v7.98c-5.7,1.22-11.85,1.29-17.9,0.01v-7.99c-3.05-0.81-5.95-2.02-8.62-3.57l-5.65,5.65
		c-5.06-3.28-9.38-7.6-12.65-12.65l5.65-5.65c-1.56-2.67-2.77-5.56-3.57-8.62h-7.98c-1.26-5.87-1.26-12.03,0-17.9h7.98
		c0.81-3.05,2.02-5.95,3.57-8.62l-5.64-5.64c3.28-5.06,7.59-9.38,12.65-12.66l5.65,5.65c2.67-1.56,5.56-2.77,8.62-3.57v-7.98
		c2.89-0.62,5.88-0.94,8.95-0.94c3.07,0,6.06,0.32,8.95,0.94v7.98c3.05,0.81,5.95,2.02,8.62,3.57l5.64-5.64
		c5.06,3.27,9.38,7.59,12.65,12.65l-5.64,5.64c1.56,2.67,2.77,5.56,3.57,8.62h7.98c1.25,5.85,1.26,12.03,0,17.9H190.18z"/>
	<circle class="st1" cx="156.39" cy="130.2" r="21.95"/>
	<path class="st2" d="M156.4,159.44c-5.74,0-11.3-1.66-16.07-4.81c-0.4-0.26-0.51-0.8-0.25-1.2c0.26-0.4,0.8-0.51,1.2-0.25
		c4.49,2.96,9.72,4.52,15.12,4.52c15.18,0,27.49-12.31,27.49-27.5c0-7.35-2.86-14.26-8.06-19.45c-0.34-0.34-0.34-0.89,0-1.22
		c0.34-0.34,0.89-0.34,1.22,0c5.52,5.52,8.56,12.86,8.56,20.67C185.62,146.35,172.55,159.44,156.4,159.44z M137.48,152.49
		c-0.6-0.51-1.2-1.06-1.76-1.62c-0.34-0.34-0.34-0.89,0-1.22c0.34-0.34,0.89-0.34,1.22,0c0.53,0.53,1.09,1.04,1.66,1.53
		c0.36,0.31,0.41,0.85,0.1,1.22C138.39,152.76,137.84,152.8,137.48,152.49z"/>
	<path d="M114.61,140.02h7.33c0.79,2.79,1.84,5.23,3.15,7.61l-5.18,5.18c-0.29,0.29-0.34,0.74-0.11,1.08
		c1.4,2.17,3.01,4.22,4.78,6.1c0.33,0.35,0.88,0.36,1.22,0.04c0.35-0.33,0.37-0.88,0.04-1.22c-1.53-1.64-2.95-3.41-4.2-5.28
		l5.15-5.15c0.28-0.28,0.33-0.71,0.13-1.05c-1.46-2.48-2.68-5.37-3.48-8.4c-0.1-0.38-0.44-0.64-0.84-0.64h-7.28
		c-1.03-5.27-1.05-10.82,0-16.17h7.28c0.39,0,0.74-0.26,0.84-0.64c0.77-2.94,1.95-5.77,3.48-8.4c0.2-0.34,0.14-0.77-0.13-1.05
		l-5.15-5.14c3.05-4.53,6.9-8.38,11.43-11.43l5.15,5.15c0.27,0.27,0.72,0.33,1.05,0.13c2.64-1.54,5.46-2.71,8.4-3.48
		c0.38-0.1,0.64-0.44,0.64-0.84v-7.28c1.44-0.28,2.91-0.49,4.38-0.62c0.49-0.04,0.83-0.46,0.79-0.94c-0.04-0.47-0.46-0.83-0.94-0.79
		c-1.76,0.16-3.54,0.42-5.27,0.79c-0.4,0.08-0.68,0.44-0.68,0.84v7.33c-2.64,0.75-5.2,1.81-7.61,3.15l-5.18-5.18
		c-0.28-0.28-0.75-0.33-1.08-0.11c-4.99,3.24-9.45,7.59-12.9,12.92c-0.22,0.34-0.17,0.8,0.11,1.08l5.17,5.18
		c-1.34,2.41-2.4,4.97-3.15,7.61h-7.33c-0.4,0-0.76,0.29-0.84,0.68c-1.25,5.88-1.31,12.13,0,18.26
		C113.85,139.73,114.21,140.02,114.61,140.02z"/>
	<path d="M156.06,88.35c0.48,0,0.86-0.39,0.86-0.87c0-0.47-0.39-0.86-0.86-0.86h-0.01c-0.48,0-0.86,0.39-0.86,0.87
		C155.19,87.97,155.58,88.35,156.06,88.35L156.06,88.35z"/>
	<path d="M187.69,112.78l5.17-5.18c0.29-0.28,0.34-0.74,0.12-1.08c-3.23-4.98-7.56-9.45-12.91-12.91c-0.33-0.22-0.8-0.17-1.08,0.11
		l-5.17,5.17c-2.43-1.35-4.97-2.4-7.61-3.15v-7.33c0-0.4-0.29-0.76-0.68-0.84c-1.95-0.42-3.95-0.7-5.95-0.85
		c-0.47-0.03-0.89,0.33-0.92,0.8c-0.03,0.47,0.33,0.89,0.8,0.92c1.68,0.12,3.38,0.35,5.03,0.67v7.28c0,0.39,0.26,0.74,0.64,0.84
		c2.89,0.76,5.73,1.92,8.4,3.48c0.33,0.19,0.77,0.13,1.05-0.13l5.14-5.15c4.54,3.05,8.39,6.9,11.43,11.43l-5.15,5.14
		c-0.28,0.28-0.33,0.71-0.13,1.05c1.54,2.64,2.71,5.46,3.48,8.4c0.1,0.38,0.44,0.64,0.84,0.64h7.28c1.03,5.23,1.06,10.79,0,16.17
		h-7.28c-0.39,0-0.74,0.26-0.84,0.64c-0.77,2.94-1.95,5.76-3.48,8.4c-0.2,0.34-0.14,0.77,0.13,1.05l5.15,5.15
		c-3.05,4.53-6.9,8.38-11.43,11.42l-5.15-5.15c-0.27-0.27-0.72-0.33-1.05-0.13c-2.64,1.54-5.46,2.71-8.4,3.48
		c-0.38,0.1-0.64,0.44-0.64,0.84v7.28c-5.28,1.04-10.86,1.04-16.17,0v-7.28c0-0.39-0.26-0.74-0.64-0.84
		c-2.94-0.77-5.76-1.95-8.4-3.48c-0.33-0.19-0.77-0.13-1.05,0.13l-5.15,5.15c-0.75-0.5-1.5-1.04-2.22-1.6
		c-0.37-0.28-0.93-0.21-1.21,0.16c-0.3,0.39-0.21,0.93,0.16,1.21c0.94,0.73,1.92,1.42,2.92,2.06c0.34,0.21,0.8,0.17,1.08-0.11
		l5.18-5.18c2.41,1.34,4.96,2.4,7.61,3.15v7.33c0,0.4,0.29,0.76,0.68,0.85c5.87,1.24,12.12,1.3,18.26-0.01
		c0.4-0.09,0.68-0.44,0.68-0.84v-7.33c2.64-0.75,5.2-1.81,7.61-3.15l5.18,5.18c0.28,0.28,0.75,0.33,1.08,0.11
		c5.21-3.38,9.62-7.82,12.91-12.9c0.22-0.34,0.17-0.8-0.11-1.08l-5.18-5.18c1.34-2.41,2.4-4.97,3.15-7.61h7.33
		c0.4,0,0.76-0.29,0.84-0.68c1.28-5.99,1.28-12.27,0-18.26c-0.09-0.4-0.44-0.68-0.84-0.68h-7.33
		C190.09,117.75,189.03,115.19,187.69,112.78z"/>
	<path d="M133.57,130.2c0,12.57,10.17,22.81,22.81,22.81h0c12.55,0,22.81-10.15,22.81-22.81c0-8.76-4.94-16.41-12.25-20.23
		c-0.41-0.22-0.94-0.07-1.17,0.36c-0.22,0.43-0.05,0.95,0.37,1.17c6.99,3.66,11.32,10.82,11.32,18.69
		c0,11.69-9.45,21.08-21.08,21.08c-11.68,0-21.08-9.45-21.08-21.08c0-11.62,9.39-21.08,21.08-21.08c1.17,0,2.34,0.1,3.49,0.29
		c0.47,0.08,0.92-0.25,1-0.71c0.08-0.48-0.25-0.92-0.71-0.99c-1.23-0.21-2.5-0.31-3.77-0.31
		C143.8,107.39,133.57,117.59,133.57,130.2z"/>
	<path d="M163.09,110.21c0.5,0.15,0.95-0.13,1.09-0.55c0.15-0.45-0.09-0.94-0.54-1.09c-0.45-0.15-0.95,0.1-1.1,0.54
		C162.4,109.56,162.64,110.05,163.09,110.21z"/>
	<g>
		<path class="st0" d="M206.32,64.06H43.52c-4.89,0-8.88,4-8.88,8.88v104.71c0,4.89,4,8.88,8.88,8.88h162.79
			c4.89,0,8.88-4,8.88-8.88V72.94C215.2,68.05,211.2,64.06,206.32,64.06z"/>
	</g>
	<g>
		<path class="st3" d="M173.76,175.22h-8.26c-1.3,0-2.36-1.05-2.36-2.36v-62.83c0-1.3,1.05-2.36,2.36-2.36h8.26
			c1.3,0,2.36,1.05,2.36,2.36v62.83C176.11,174.17,175.06,175.22,173.76,175.22z"/>
	</g>
	<g>
		<path d="M206.32,188.33H43.53c-5.89,0-10.68-4.79-10.68-10.68V72.94c0-5.89,4.79-10.68,10.68-10.68h162.79
			c5.89,0,10.68,4.79,10.68,10.68v104.71C217,183.54,212.21,188.33,206.32,188.33z M43.53,65.86c-3.91,0-7.09,3.18-7.09,7.09v104.71
			c0,3.91,3.18,7.09,7.09,7.09h162.79c3.91,0,7.09-3.18,7.09-7.09V72.94c0-3.91-3.18-7.09-7.09-7.09H43.53z"/>
	</g>
	<g>
		<path d="M206.32,188.33H43.53c-5.89,0-10.68-4.79-10.68-10.68V72.94c0-5.89,4.79-10.68,10.68-10.68h162.79
			c5.89,0,10.68,4.79,10.68,10.68v104.71C217,183.54,212.21,188.33,206.32,188.33z M43.53,65.86c-3.91,0-7.09,3.18-7.09,7.09v104.71
			c0,3.91,3.18,7.09,7.09,7.09h162.79c3.91,0,7.09-3.18,7.09-7.09V72.94c0-3.91-3.18-7.09-7.09-7.09H43.53z"/>
	</g>
	<g>
		<path d="M51.91,100.59c-0.99,0-1.8-0.81-1.8-1.8V81.71c0-0.99,0.81-1.8,1.8-1.8c0.99,0,1.8,0.81,1.8,1.8v17.08
			C53.7,99.78,52.9,100.59,51.91,100.59z"/>
	</g>
	<g>
		<path d="M59.51,100.59c-0.99,0-1.8-0.81-1.8-1.8V81.71c0-0.99,0.81-1.8,1.8-1.8c0.99,0,1.8,0.81,1.8,1.8v17.08
			C61.31,99.78,60.5,100.59,59.51,100.59z"/>
	</g>
	<g>
		<path d="M115.62,100.59c-0.99,0-1.8-0.81-1.8-1.8V81.71c0-0.99,0.81-1.8,1.8-1.8c0.99,0,1.8,0.81,1.8,1.8v17.08
			C117.42,99.78,116.61,100.59,115.62,100.59z"/>
	</g>
	<g>
		<path d="M95.68,100.59c-0.99,0-1.8-0.81-1.8-1.8V81.71c0-0.99,0.81-1.8,1.8-1.8c0.99,0,1.8,0.81,1.8,1.8v17.08
			C97.48,99.78,96.68,100.59,95.68,100.59z"/>
	</g>
	<g>
		<path d="M87.16,100.59h-7.2c-1.5,0-2.72-1.22-2.72-2.72V82.63c0-1.5,1.22-2.72,2.72-2.72h7.2c1.5,0,2.72,1.22,2.72,2.72v15.24
			C89.88,99.37,88.66,100.59,87.16,100.59z M80.83,96.99h5.45V83.51h-5.45V96.99z M87.16,83.51L87.16,83.51L87.16,83.51z"/>
	</g>
	<g>
		<path d="M107.45,100.59h-3.6c-1.5,0-2.72-1.22-2.72-2.72V82.63c0-1.5,1.22-2.72,2.72-2.72h3.6c1.5,0,2.72,1.22,2.72,2.72v15.24
			C110.17,99.37,108.95,100.59,107.45,100.59z M104.73,96.99h1.84V83.51h-1.84V96.99z M107.45,83.51L107.45,83.51L107.45,83.51z"/>
	</g>
	<g>
		<path d="M71.07,100.59h-3.6c-1.5,0-2.72-1.22-2.72-2.72V82.63c0-1.5,1.22-2.72,2.72-2.72h3.6c1.5,0,2.72,1.22,2.72,2.72v15.24
			C73.79,99.37,72.57,100.59,71.07,100.59z M68.35,96.99h1.84V83.51h-1.84V96.99z M71.07,83.51L71.07,83.51L71.07,83.51z"/>
	</g>
	<g>
		<path d="M76.33,137.16H56.97c-0.99,0-1.8-0.81-1.8-1.8s0.81-1.8,1.8-1.8h19.36c0.99,0,1.8,0.81,1.8,1.8S77.33,137.16,76.33,137.16
			z"/>
	</g>
	<g>
		<path d="M76.33,146.03H56.97c-0.99,0-1.8-0.81-1.8-1.8s0.81-1.8,1.8-1.8h19.36c0.99,0,1.8,0.81,1.8,1.8S77.33,146.03,76.33,146.03
			z"/>
	</g>
	<g>
		<path d="M76.33,154.91H56.97c-0.99,0-1.8-0.81-1.8-1.8c0-0.99,0.81-1.8,1.8-1.8h19.36c0.99,0,1.8,0.81,1.8,1.8
			C78.13,154.11,77.33,154.91,76.33,154.91z"/>
	</g>
	<g>
		<path d="M76.33,163.79H56.97c-0.99,0-1.8-0.81-1.8-1.8s0.81-1.8,1.8-1.8h19.36c0.99,0,1.8,0.81,1.8,1.8S77.33,163.79,76.33,163.79
			z"/>
	</g>
	<path class="st0" d="M185.31,136.98c-0.72,2.72-1.8,5.3-3.18,7.68l5.04,5.04c-2.93,4.51-6.78,8.36-11.28,11.27l-5.03-5.03
		c-2.38,1.39-4.96,2.47-7.68,3.18v7.12c-5.08,1.09-10.56,1.15-15.96,0v-7.12c-2.72-0.72-5.3-1.8-7.68-3.18l-5.03,5.03
		c-4.51-2.92-8.36-6.77-11.28-11.28l5.03-5.03c-1.39-2.38-2.47-4.96-3.18-7.68h-7.12c-1.12-5.23-1.12-10.72,0-15.96h7.12
		c0.72-2.72,1.8-5.3,3.18-7.68l-5.03-5.03c2.92-4.51,6.77-8.36,11.27-11.28l5.03,5.03c2.38-1.39,4.96-2.47,7.68-3.18v-7.12
		c2.57-0.55,5.24-0.84,7.98-0.84s5.4,0.29,7.98,0.84v7.12c2.72,0.72,5.3,1.8,7.68,3.18l5.03-5.03c4.51,2.92,8.36,6.77,11.28,11.28
		l-5.03,5.03c1.39,2.38,2.47,4.96,3.18,7.68h7.12c1.12,5.21,1.12,10.72,0,15.96H185.31z"/>
	<circle class="st1" cx="155.19" cy="129" r="19.57"/>
	<path class="st2" d="M155.2,155.06c-5.12,0-10.07-1.48-14.33-4.29c-0.36-0.23-0.45-0.71-0.22-1.07c0.23-0.36,0.71-0.45,1.07-0.22
		c4,2.64,8.66,4.03,13.48,4.03c13.53,0,24.51-10.97,24.51-24.51c0-6.55-2.55-12.71-7.18-17.34c-0.3-0.3-0.3-0.79,0-1.09
		c0.3-0.3,0.79-0.3,1.09,0c4.92,4.92,7.63,11.47,7.63,18.43C181.25,143.39,169.59,155.06,155.2,155.06z M138.33,148.87
		c-0.54-0.46-1.07-0.94-1.57-1.45c-0.3-0.3-0.3-0.79,0-1.09c0.3-0.3,0.79-0.3,1.09,0c0.47,0.47,0.97,0.93,1.48,1.36
		c0.32,0.28,0.36,0.76,0.09,1.09C139.15,149.11,138.66,149.15,138.33,148.87z"/>
	<path d="M117.95,137.75h6.53c0.7,2.49,1.64,4.66,2.81,6.78l-4.62,4.62c-0.26,0.26-0.3,0.66-0.1,0.96c1.25,1.93,2.69,3.76,4.26,5.44
		c0.3,0.32,0.79,0.32,1.09,0.03c0.31-0.29,0.33-0.78,0.04-1.09c-1.37-1.46-2.63-3.04-3.75-4.71l4.59-4.59
		c0.25-0.25,0.3-0.63,0.12-0.93c-1.3-2.21-2.39-4.79-3.1-7.49c-0.09-0.34-0.39-0.57-0.75-0.57h-6.49c-0.92-4.7-0.94-9.64,0-14.42
		h6.49c0.35,0,0.66-0.23,0.75-0.57c0.69-2.62,1.74-5.14,3.1-7.49c0.18-0.3,0.13-0.68-0.12-0.93l-4.59-4.58
		c2.72-4.04,6.15-7.47,10.19-10.19l4.59,4.59c0.24,0.24,0.64,0.29,0.93,0.12c2.35-1.37,4.87-2.41,7.49-3.1
		c0.34-0.09,0.57-0.39,0.57-0.75v-6.49c1.28-0.25,2.6-0.44,3.9-0.55c0.43-0.04,0.74-0.41,0.7-0.84c-0.04-0.42-0.41-0.74-0.84-0.7
		c-1.57,0.14-3.15,0.38-4.7,0.71c-0.35,0.07-0.61,0.39-0.61,0.75v6.53c-2.35,0.67-4.63,1.61-6.78,2.81l-4.62-4.62
		c-0.25-0.25-0.67-0.29-0.96-0.1c-4.45,2.89-8.42,6.77-11.5,11.51c-0.2,0.3-0.15,0.71,0.1,0.96l4.61,4.62
		c-1.2,2.15-2.14,4.43-2.81,6.78h-6.53c-0.36,0-0.68,0.26-0.75,0.61c-1.12,5.24-1.17,10.81,0,16.28
		C117.28,137.49,117.59,137.75,117.95,137.75z"/>
	<path d="M154.9,91.7c0.43,0,0.77-0.35,0.76-0.78c0-0.42-0.35-0.76-0.77-0.76h-0.01c-0.43,0-0.77,0.35-0.76,0.78
		C154.13,91.35,154.47,91.7,154.9,91.7L154.9,91.7z"/>
	<path d="M183.09,113.47l4.61-4.62c0.26-0.25,0.3-0.66,0.1-0.96c-2.88-4.44-6.74-8.42-11.51-11.51c-0.3-0.19-0.71-0.15-0.97,0.1
		l-4.61,4.61c-2.17-1.21-4.43-2.14-6.78-2.81v-6.53c0-0.36-0.26-0.68-0.61-0.75c-1.74-0.37-3.52-0.63-5.3-0.76
		c-0.42-0.03-0.79,0.29-0.82,0.72c-0.03,0.42,0.29,0.79,0.71,0.82c1.5,0.11,3.01,0.31,4.48,0.6v6.49c0,0.35,0.23,0.66,0.57,0.75
		c2.58,0.68,5.11,1.72,7.49,3.1c0.3,0.17,0.69,0.12,0.93-0.12l4.58-4.59c4.05,2.72,7.48,6.15,10.19,10.19l-4.59,4.58
		c-0.25,0.25-0.3,0.63-0.12,0.93c1.37,2.35,2.41,4.87,3.1,7.49c0.09,0.34,0.39,0.57,0.75,0.57h6.49c0.92,4.66,0.94,9.62,0,14.42
		h-6.49c-0.35,0-0.66,0.23-0.75,0.57c-0.69,2.62-1.74,5.14-3.1,7.49c-0.18,0.3-0.13,0.68,0.12,0.93l4.59,4.59
		c-2.72,4.04-6.15,7.47-10.19,10.18l-4.59-4.59c-0.24-0.24-0.64-0.29-0.93-0.12c-2.35,1.37-4.87,2.41-7.49,3.1
		c-0.34,0.09-0.57,0.39-0.57,0.75v6.49c-4.71,0.92-9.68,0.92-14.42,0v-6.49c0-0.35-0.23-0.66-0.57-0.75
		c-2.62-0.69-5.14-1.74-7.49-3.1c-0.3-0.17-0.69-0.12-0.93,0.12l-4.59,4.59c-0.67-0.45-1.33-0.93-1.98-1.42
		c-0.33-0.25-0.83-0.19-1.08,0.14c-0.27,0.35-0.19,0.83,0.14,1.08c0.84,0.65,1.71,1.27,2.6,1.84c0.3,0.19,0.72,0.15,0.96-0.1
		l4.62-4.62c2.15,1.2,4.42,2.14,6.78,2.81v6.53c0,0.36,0.26,0.68,0.61,0.76c5.23,1.11,10.8,1.16,16.28-0.01
		c0.35-0.08,0.61-0.39,0.61-0.75v-6.53c2.35-0.67,4.63-1.61,6.78-2.81l4.62,4.62c0.25,0.25,0.67,0.29,0.97,0.1
		c4.64-3.01,8.57-6.97,11.51-11.5c0.2-0.3,0.15-0.71-0.1-0.96l-4.62-4.62c1.2-2.15,2.14-4.43,2.81-6.78h6.53
		c0.36,0,0.68-0.26,0.75-0.61c1.14-5.34,1.14-10.93,0-16.28c-0.08-0.35-0.39-0.61-0.75-0.61h-6.53
		C185.23,117.9,184.29,115.62,183.09,113.47z"/>
	<path d="M134.86,129c0,11.21,9.07,20.34,20.34,20.34h0c11.19,0,20.33-9.05,20.33-20.34c0-7.81-4.4-14.62-10.92-18.03
		c-0.36-0.2-0.84-0.06-1.04,0.32c-0.2,0.39-0.05,0.85,0.33,1.04c6.23,3.26,10.09,9.64,10.09,16.66c0,10.42-8.42,18.79-18.79,18.79
		c-10.42,0-18.79-8.42-18.79-18.79c0-10.36,8.37-18.79,18.79-18.79c1.04,0,2.09,0.09,3.11,0.26c0.42,0.07,0.82-0.22,0.89-0.64
		c0.07-0.43-0.22-0.82-0.64-0.88c-1.1-0.19-2.23-0.28-3.36-0.28C143.97,108.67,134.86,117.76,134.86,129z"/>
	<path d="M161.17,111.18c0.45,0.14,0.85-0.11,0.97-0.49c0.14-0.4-0.08-0.84-0.48-0.97c-0.4-0.13-0.84,0.09-0.98,0.48
		C160.55,110.6,160.76,111.04,161.17,111.18z"/>
	<g>
		<path class="st4" d="M142.82,148.8c-10.56,0-31.1,0-41.64,0c-1.14,0-2.19-0.41-3.01-1.09c0,28.68,0,0.55,0,21.13
			c0,2.49,2.04,4.53,4.53,4.53c11.63,0,26.3,0,38.9,0c2.49,0,4.53-2.04,4.53-4.53c0-28.66,0,1.97,0-21.39
			C145.29,148.28,144.11,148.8,142.82,148.8z"/>
	</g>
	<g>
		<path d="M142.82,150.6h-41.64c-3,0-5.61-2.03-6.36-4.94c-0.04-0.15-0.06-0.3-0.06-0.45v-7c0-3.62,2.95-6.57,6.57-6.57h41.64
			c2.99,0,5.61,2.03,6.36,4.94c0.04,0.15,0.06,0.3,0.06,0.45v7.01C149.39,147.66,146.45,150.6,142.82,150.6z M98.37,144.96
			c0.4,1.21,1.53,2.05,2.82,2.05h41.64c1.64,0,2.97-1.33,2.97-2.97v-6.75c-0.4-1.21-1.53-2.05-2.82-2.05h-41.64
			c-1.64,0-2.97,1.33-2.97,2.97V144.96z"/>
	</g>
	<g>
		<path d="M141.61,175.17h-38.9c-3.49,0-6.33-2.84-6.33-6.33v-21.13c0-0.7,0.4-1.33,1.03-1.63c0.63-0.3,1.37-0.2,1.91,0.24
			c0.38,0.31,1.01,0.68,1.87,0.68h41.64c0.77,0,1.51-0.3,2.07-0.85c0.52-0.5,1.29-0.65,1.95-0.37c0.67,0.28,1.1,0.93,1.1,1.66v21.39
			C147.95,172.33,145.1,175.17,141.61,175.17z M99.97,161.61v7.23c0,1.51,1.23,2.74,2.74,2.74h38.9c1.51,0,2.74-1.23,2.74-2.74
			v-18.42c-0.49,0.12-1.01,0.18-1.52,0.18h-41.64c-0.41,0-0.82-0.04-1.22-0.12V161.61z"/>
	</g>
	<g>
		<path class="st5" d="M142.98,133.44c-10.56,0-31.08,0-41.64,0c-2.62,0-4.77,2.15-4.77,4.77v7c0.53,2.06,2.4,3.59,4.62,3.59
			c10.54,0,31.08,0,41.64,0c2.62,0,4.77-2.15,4.77-4.77v-7C147.07,134.97,145.2,133.44,142.98,133.44z"/>
	</g>
</g>
</svg>
