<?xml version="1.0" encoding="utf-8"?>
<!-- Generator: Adobe Illustrator 24.2.1, SVG Export Plug-In . SVG Version: 6.00 Build 0)  -->
<svg version="1.0" id="Layer_1" xmlns="http://www.w3.org/2000/svg" xmlns:xlink="http://www.w3.org/1999/xlink" x="0px" y="0px"
	 viewBox="0 0 100 100" style="enable-background:new 0 0 100 100;" xml:space="preserve">
<style type="text/css">
	.st0{fill:#EC1C24;}
	.st1{fill:#FED400;}
	.st2{fill:#F15519;}
	.st3{fill:#F36716;}
	.st4{fill:#F26217;}
	.st5{fill:#DC1D21;}
</style>
<g>
	<path class="st0" d="M59,61.8c-2,0-3.9,0-5.9,0c-0.2,0-0.5,0-0.7,0.2c-1.5,1.4-3.4,1.3-4.9,0.1c-0.3-0.2-0.6-0.3-0.9-0.3
		c-3.8,0-7.7,0-11.5,0c-0.6,0-0.8-0.1-0.9-0.8c-0.1-1.7-0.4-3.3-0.6-5c-0.1-0.8-0.3-1.7-0.3-2.5c0-1-0.5-1.4-1.1-1.9
		c-2.2-1.5-4.3-3.1-6.4-4.6c-0.3-0.2-0.3-0.5-0.3-0.8c-0.5-2.2-0.6-4.4-0.4-6.6c0.2-2.7,0.9-5.3,2-7.8c1.2-2.6,2.7-4.9,4.6-7
		c3.5-3.8,7.7-6.3,12.8-7.5c1.9-0.5,3.9-0.7,5.9-0.7c3.2,0.1,6.4,0.7,9.4,2c3.5,1.5,6.5,3.7,8.9,6.5c2.8,3.1,4.7,6.8,5.7,10.9
		c0.5,2.2,0.8,4.4,0.7,6.6c-0.1,1.3-0.2,2.6-0.5,3.8c-0.2,0.6-0.7,0.8-1.2,1.1c-2.1,1.5-4.2,3-6.3,4.5c-0.2,0.2-0.2,0.3-0.3,0.6
		c-0.2,1.8-0.5,3.5-0.6,5.3c-0.1,1-0.3,1.9-0.3,2.9c0,0.6-0.2,0.9-0.9,0.9C62.9,61.8,61,61.8,59,61.8z"/>
	<path class="st1" d="M47.2,46.2c-0.5-2.7-1.1-5.4-1.6-8.2c-0.9-4.6-1.8-9.1-2.7-13.7c0-0.2-0.1-0.5-0.1-0.7c-0.3-0.7,0-1.1,0.7-1.4
		c1.6-0.7,3.3-1.1,5.1-0.9c0.3,0,0.5,0.1,0.5,0.5c0,1.6,0.1,3.2,0.2,4.7c0.1,3.6,0.3,7.2,0.4,10.8c0.1,2.1,0.2,4.1,0.3,6.2
		c0,1.4,0,2.7,0,4.1c0.4-0.2,0.3-0.4,0.3-0.6c0.1-3.2,0.2-6.5,0.3-9.7c0.1-2.3,0.2-4.6,0.3-6.9c0.1-2.9,0.2-5.7,0.4-8.6
		c0-0.3,0.1-0.5,0.5-0.5c1.9-0.1,3.7,0.2,5.4,1.1c0.4,0.2,0.5,0.5,0.4,1c-1,5.1-2,10.2-3.1,15.2c-0.6,3-1.2,6-1.8,8.9
		c0,0.1,0,0.2,0.1,0.3c0.5-1.7,1-3.5,1.5-5.2c1.1-4,2.3-8,3.4-12c0.6-2.1,1.2-4.1,1.8-6.2c0.1-0.5,0.3-0.6,0.8-0.5
		c1.4,0.5,2.6,1.3,3.7,2.4c1.1,1.1,1.1,1.1,0.4,2.5c-2.2,4.6-4.3,9.2-6.5,13.8c-0.7,1.4-1.4,2.9-2,4.4c-0.2,0.7-0.6,1.2-0.8,1.7
		c0.3-0.5,0.5-1.1,1-1.6c1.5-2.5,2.9-5,4.4-7.5c1.5-2.5,2.9-5,4.4-7.5c0.4-0.7,0.9-1.5,1.3-2.2c0.2-0.4,0.4-0.4,0.7-0.1
		c0.7,0.6,1.2,1.4,1.6,2.2c0.4,0.6,0.6,1.2,0.9,1.9c0.3,0.6,0.3,1.2-0.2,1.7c-1.6,1.9-3.2,3.9-4.8,5.8c-2,2.5-4.1,5-6.1,7.5
		c-0.1,0.4-0.4,0.6-0.6,0.8c0.3-0.2,0.4-0.6,0.8-0.7c2.9-3,5.9-6,8.8-8.9c0.9-0.9,1.9-1.7,2.8-2.6c0.5,0.8,0.7,1.9,0.9,3
		c0.1,1,0,2-0.1,3c-0.1,0.6-0.4,1-0.9,1.4c-2.1,1.5-4.2,3.1-6.4,4.6c-0.4,0.3-0.5,0.6-0.6,1c-0.2,2.1-0.5,4.2-0.8,6.4
		c-0.1,0.5-0.4,0.4-0.7,0.4c-2.7,0-5.3,0-8,0c-0.4,0-0.8,0-1,0.4c0,0-0.1,0.1-0.1,0.1c-1.8,1.3-2.5,1.3-4.2-0.1
		c-0.3-0.3-0.6-0.3-1-0.3c-2.7,0-5.3,0-8,0c-0.5,0-0.7-0.2-0.8-0.7c-0.2-2-0.5-4-0.7-6c-0.1-0.5-0.2-0.9-0.7-1.2
		c-2.2-1.5-4.3-3.1-6.4-4.6c-0.4-0.3-0.7-0.6-0.7-1.1c-0.3-1.9-0.3-3.9,0.4-5.7c0.1-0.2,0.2-0.5,0.3-0.8c4.2,4.2,8.3,8.4,12.4,12.6
		c0,0,0.1-0.1,0.1-0.1c-0.5-0.6-1-1.2-1.5-1.8c-2.9-3.6-5.8-7.1-8.7-10.7c-0.5-0.7-1.1-1.4-1.6-2c-0.4-0.4-0.4-0.7-0.2-1.2
		c0.6-1.6,1.4-3.1,2.5-4.4c0.4-0.5,0.6-0.5,1,0.1c2.5,4.3,5,8.7,7.5,13c1.1,1.9,2.2,3.8,3.3,5.6c-0.2-0.5-0.4-0.9-0.6-1.4
		c-1.9-4-3.8-8.1-5.7-12.1c-1.1-2.4-2.2-4.8-3.3-7.2c-0.2-0.3-0.2-0.6,0.1-0.9c1.2-1.4,2.6-2.4,4.2-3.1c0.7-0.3,0.8-0.2,1.1,0.6
		c1.2,4.2,2.4,8.5,3.6,12.7c0.8,2.9,1.7,5.9,2.5,8.8c0,0.1,0.1,0.2,0.1,0.3c0.3,0.4,0.2,1,0.4,1.3c0.1,0.2,0.2,0.1,0.1,0.1
		c0,0,0,0-0.1,0C47.3,47.3,47.2,46.8,47.2,46.2z"/>
	<path class="st2" d="M55.9,47.1c-0.3,0.6-0.7,1.2-1,1.8c0.1-0.7,0.5-1.4,0.8-1.9C55.8,47.1,55.8,47.1,55.9,47.1z"/>
	<path class="st3" d="M47.2,46.2c0.2,0.6,0.2,1.2,0.4,1.8c-0.3-0.5-0.4-1-0.5-1.5C47.1,46.4,47.1,46.3,47.2,46.2z"/>
	<path class="st4" d="M58.2,49c-0.3,0.5-0.7,0.8-1.2,1.1c0.4-0.4,0.7-0.8,1.1-1.2C58.1,49,58.1,49,58.2,49z"/>
</g>
<g>
	<path class="st5" d="M30.5,84c-1.5,0-2.9-0.4-4.2-1c-0.5-0.2-0.9-0.5-1.3-0.8c-0.1,0-0.1-0.1,0-0.1c0.6-1.1,1.2-2.1,1.7-3.2
		c0-0.1,0.1-0.1,0.1,0c0.5,0.4,1.1,0.9,1.7,1.2c0.7,0.3,1.4,0.5,2.2,0.4c0.5,0,0.9-0.2,1.3-0.5c0.5-0.5,0.7-1.4,0-2
		c-0.3-0.3-0.8-0.5-1.2-0.6c-0.6-0.2-1.2-0.3-1.8-0.5c-0.6-0.2-1.1-0.4-1.6-0.7c-0.9-0.5-1.4-1.3-1.6-2.3c-0.2-1.1-0.2-2.2,0.2-3.3
		c0.5-1.5,1.6-2.5,3.1-3c0.9-0.3,1.9-0.4,2.9-0.3c1.4,0.1,2.7,0.5,3.9,1.1c0.1,0,0.2,0.1,0.3,0.1c0.1,0,0.1,0.1,0,0.1
		c-0.5,0.9-0.9,1.7-1.4,2.6c-0.1,0.1-0.1,0.2-0.2,0.3c0,0.1-0.1,0.1-0.1,0c-0.5-0.4-1-0.7-1.6-0.8c-0.4-0.1-0.9-0.2-1.3-0.1
		c-0.5,0.1-0.9,0.2-1.2,0.6c-0.5,0.5-0.4,1.1,0,1.5c0.3,0.3,0.6,0.4,1,0.5c0.7,0.3,1.4,0.5,2.1,0.7c0.7,0.2,1.3,0.5,1.9,0.9
		c0.8,0.6,1.3,1.4,1.5,2.4c0.1,0.5,0.1,1,0.1,1.5c0,0.6-0.1,1.1-0.3,1.7c-0.4,1.1-1.1,2-2.1,2.6c-0.8,0.5-1.7,0.8-2.7,0.9
		C31.3,84,30.9,84,30.5,84z"/>
	<path class="st5" d="M38.5,74.6c0-2.9,0-5.8,0-8.7c0-0.1,0-0.1,0.1-0.1c1.2,0,2.4,0,3.5,0c0.1,0,0.1,0,0.1,0.1c0,2.6,0,5.2,0,7.8
		c0,0,0,0,0,0.1c0,0,0,0.1,0,0.1c0,0,0.1,0,0.1,0c0.1-0.1,0.2-0.2,0.3-0.4c0.6-0.6,1.3-1.1,2.1-1.3c1-0.2,1.9-0.2,2.9,0.2
		c1,0.4,1.6,1.1,2,2c0.3,0.7,0.4,1.5,0.4,2.3c0,2.2,0,4.3,0,6.5c0,0.1,0,0.1-0.1,0.1c-1.2,0-2.4,0-3.6,0c-0.1,0-0.1,0-0.1-0.1
		c0-1.8,0-3.6,0-5.4c0-0.5,0-1-0.2-1.4c-0.1-0.5-0.4-0.9-1-1.1c-0.3-0.1-0.6-0.1-0.9-0.1c-0.9,0.1-1.3,0.7-1.6,1.5
		c-0.1,0.4-0.1,0.7-0.1,1.1c0,1.8,0,3.6,0,5.4c0,0.1,0,0.1-0.1,0.1c-1.2,0-2.4,0-3.6,0c-0.1,0-0.1,0-0.1-0.1
		C38.5,80.4,38.5,77.5,38.5,74.6z"/>
	<path class="st5" d="M63.3,80.1c-0.1,0.4-0.3,0.8-0.5,1.2c-0.1,0.2-0.3,0.5-0.5,0.7c-0.2,0.2-0.3,0.4-0.5,0.5
		c-0.2,0.2-0.5,0.4-0.8,0.6c-0.3,0.2-0.6,0.3-1,0.5c-0.5,0.2-1,0.3-1.4,0.3c-0.4,0.1-0.9,0.1-1.3,0.1c-0.8,0-1.6-0.2-2.3-0.4
		c-0.6-0.2-1.1-0.5-1.6-0.9c-0.6-0.5-1.1-1.1-1.5-1.9c-0.2-0.4-0.3-0.9-0.4-1.3c-0.1-0.6-0.1-1.1-0.1-1.7c0.1-1.2,0.4-2.4,1.2-3.3
		c0.7-0.9,1.6-1.4,2.7-1.8c0.4-0.1,0.7-0.2,1.1-0.2c0.4-0.1,0.9-0.1,1.3-0.1c0.5,0,1,0.1,1.4,0.2c0.5,0.1,1,0.3,1.4,0.5
		c0.3,0.2,0.6,0.3,0.8,0.6c0.6,0.5,1.1,1.2,1.4,1.9c0.2,0.4,0.3,0.9,0.4,1.3c0.1,0.3,0.1,0.6,0.1,0.9c0,0.2,0,0.3,0,0.5
		c0,0.1,0,0.3,0,0.4c0,0.1,0,0.1-0.1,0.1c0,0,0,0-0.1,0c-2.6,0-5.3,0-7.9,0c-0.1,0-0.2,0-0.1,0.1c0,0.2,0,0.5,0.1,0.7
		c0.1,0.3,0.3,0.7,0.5,0.9c0.3,0.3,0.7,0.5,1.2,0.6c0.3,0.1,0.7,0.1,1,0c0.4,0,0.8-0.2,1.1-0.5c0.1-0.1,0.3-0.3,0.4-0.4
		c0,0,0.1-0.1,0.1-0.1C60.8,80.1,62,80.1,63.3,80.1C63.2,80.1,63.3,80.1,63.3,80.1z M55.4,76.4C55.4,76.4,55.5,76.4,55.4,76.4
		c1.5,0,2.9,0,4.4,0c0,0,0,0,0.1,0c0,0,0,0,0,0c0,0,0-0.1,0-0.1c-0.1-0.4-0.4-0.8-0.7-1.1c-0.4-0.3-0.9-0.5-1.4-0.5
		c-0.2,0-0.3,0-0.5,0c-0.2,0-0.5,0.1-0.7,0.2c-0.3,0.1-0.5,0.4-0.7,0.6C55.6,75.8,55.5,76.1,55.4,76.4z"/>
	<path class="st5" d="M71.2,74.7c0-2.9,0-5.8,0-8.7c0-0.1,0-0.1,0.2-0.1c1.2,0,2.4,0,3.6,0c0.1,0,0.1,0,0.1,0.1c0,5.8,0,11.6,0,17.4
		c0,0.1,0,0.1-0.1,0.1c-1.2,0-2.5,0-3.7,0c-0.1,0-0.1,0-0.1-0.1C71.2,80.5,71.2,77.6,71.2,74.7z"/>
	<path class="st5" d="M68.9,74.7c0,2.9,0,5.8,0,8.7c0,0.1,0,0.1-0.1,0.1c-1.2,0-2.4,0-3.6,0c-0.1,0-0.1,0-0.1-0.1
		c0-5.8,0-11.6,0-17.5c0-0.1,0-0.1,0.1-0.1c1.2,0,2.4,0,3.6,0c0.1,0,0.1,0,0.1,0.1C68.9,68.9,68.9,71.8,68.9,74.7z"/>
</g>
</svg>
