<?xml version="1.0" encoding="utf-8"?>
<!-- Generator: Adobe Illustrator 24.2.1, SVG Export Plug-In . SVG Version: 6.00 Build 0)  -->
<svg version="1.0" id="Layer_1" xmlns="http://www.w3.org/2000/svg" xmlns:xlink="http://www.w3.org/1999/xlink" x="0px" y="0px"
	 viewBox="0 0 100 100" style="enable-background:new 0 0 100 100;" xml:space="preserve">
<style type="text/css">
	.st0{fill:#DC2425;}
</style>
<g>
	<path class="st0" d="M49.9,20c12.5-0.1,24.1,8.4,28.2,20.6c1.1,3.2,1.7,6.4,1.8,9.8c0,0.5,0.1,1.1-0.7,0.9
		c-0.6-0.1-1.5,0.5-1.6-0.8c-0.5-4.3-3.9-7.4-8.1-7.4c-4.2,0-7.6,3-8.2,7.3c-0.1,0.8-0.4,1-1.1,1c-7,0-13.9,0-20.9,0
		c-0.7,0-0.9-0.1-1-0.9c-0.4-4.2-3.9-7.3-8.1-7.4c-4.2,0-7.7,3.2-8.1,7.5c-0.1,1.1-0.8,0.7-1.3,0.8c-0.6,0.1-0.7-0.3-0.6-0.8
		c0.1-12.8,8.2-24.5,20.2-28.9c1.3-0.5,2.7-0.9,4.1-1.1C46.2,20.2,48.1,20,49.9,20z M60.3,35.7c2.4,0,4.8,0,7.2,0
		c0.3,0,0.8,0.2,1-0.2c0.2-0.3-0.3-0.6-0.5-0.9c-3.9-5-9-7.9-15.2-8.8c-0.7-0.1-0.8,0.1-0.8,0.7c0,2.8,0,5.6,0,8.4
		c0,0.8,0.3,0.9,1,0.9C55.4,35.7,57.8,35.7,60.3,35.7z M39.3,35.7c2.4,0,4.8,0,7.2,0c0.5,0,0.9,0,0.9-0.7c0-2.9,0-5.8,0-8.7
		c0-0.6-0.3-0.6-0.7-0.6c-6.2,1-11.1,4-14.7,9.1c-0.2,0.2-0.5,0.4-0.3,0.7c0.1,0.3,0.5,0.2,0.8,0.2C34.6,35.7,36.9,35.7,39.3,35.7z"
		/>
	<path class="st0" d="M30.2,58.9c-4.1,0-7.4-3.3-7.4-7.5c0-4.1,3.3-7.5,7.4-7.5c4.1,0,7.5,3.4,7.5,7.5
		C37.7,55.5,34.3,58.9,30.2,58.9z M29.5,52.1c-1.1,1.1-2.1,2.2-3.2,3.3c-0.3,0.3-0.4,0.6,0,0.8c0.3,0.2,0.6,0.4,0.9,0.6
		c0.5,0.4,0.8,0.3,1-0.4c0.4-1.4,1-2.8,1.4-4.1c0-0.1,0-0.2,0-0.3C29.6,52.1,29.6,52.1,29.5,52.1z M29.4,51.4c0-0.1,0-0.1,0-0.2
		c-1.5-0.4-3-0.7-4.4-1.1c-0.8-0.2-1.1,0.1-1,0.8c0,0.3,0,0.5,0,0.8c0,0.5,0.1,0.8,0.7,0.6C26.3,52,27.9,51.7,29.4,51.4z M30.3,51.3
		c1.7,0.3,3.1,0.6,4.6,0.8c1.5,0.3,1.5,0.2,1.4-1.2c0-0.8-0.2-1.1-1.1-0.8C33.7,50.5,32.1,50.9,30.3,51.3z M29.6,50.7
		c0.1,0,0.2-0.1,0.3-0.1c-0.4-1.4-0.8-2.8-1.1-4.2c-0.2-0.9-0.5-1-1.2-0.6c-0.2,0.1-0.5,0.3-0.7,0.4c-0.4,0.2-0.5,0.4-0.1,0.8
		C27.6,48.2,28.6,49.4,29.6,50.7z M30.6,51.9c-0.1,0-0.1,0.1-0.2,0.1c0.4,1.3,0.9,2.5,1.3,3.8c0.5,1.5,0.6,1.5,1.9,0.6
		c0.1-0.1,0.2-0.2,0.3-0.3c0.3-0.2,0.3-0.3,0.1-0.6C32.9,54.4,31.7,53.2,30.6,51.9z M30.5,50.5c0.1,0.1,0.2,0.1,0.3,0.2
		c1-0.9,2-1.9,3.1-2.8c0.8-0.6,0.7-1-0.1-1.5c-0.2-0.1-0.5-0.3-0.7-0.5c-0.3-0.2-0.5-0.2-0.7,0.2C31.8,47.6,31.1,49.1,30.5,50.5z
		 M30.6,50.8c0-0.1-0.1-0.1-0.1-0.2c-0.1,0.1-0.2,0.1-0.2,0.2c0,0,0.1,0.1,0.1,0.1C30.5,50.8,30.6,50.8,30.6,50.8z"/>
	<path class="st0" d="M76.9,51.4c0,4.2-3.3,7.4-7.4,7.4c-4.1,0-7.5-3.4-7.5-7.5c0-4.1,3.3-7.4,7.5-7.4
		C73.7,43.8,76.9,47.1,76.9,51.4z M70.3,51.1c0,0.1,0,0.2,0,0.2c1.6,0.3,3.3,0.6,4.9,0.9c0.4,0.1,0.5-0.1,0.5-0.4c0-0.4,0-0.8,0-1.2
		c0-0.6-0.2-0.9-0.9-0.7C73.3,50.4,71.8,50.7,70.3,51.1z M68.8,51.4c0-0.1,0-0.2,0-0.2c-1.4-0.4-2.9-0.7-4.3-1.1
		c-0.8-0.2-1,0.1-1,0.8c0,0.4,0,0.7,0,1.1c0,0.3,0.1,0.5,0.5,0.4C65.6,52,67.2,51.7,68.8,51.4z M68.9,50.4c0.1-0.1,0.2-0.1,0.3-0.2
		c-0.4-1.3-0.8-2.6-1.1-4c-0.2-0.8-0.5-1-1.2-0.6c-0.3,0.2-0.6,0.4-0.9,0.6c-0.2,0.1-0.3,0.3-0.1,0.5C66.9,48,67.9,49.2,68.9,50.4z
		 M69.3,51.9C68.1,53,67.1,54.1,66,55c-0.8,0.7-0.6,1.1,0.2,1.5c0.3,0.1,0.6,0.3,0.8,0.5c0.2,0.1,0.4,0.1,0.5-0.2
		C68.1,55.2,68.7,53.6,69.3,51.9z M69.9,50.5c0.1,0.1,0.2,0.1,0.2,0.2c1-1,2-2,3.1-2.8c0.7-0.6,0.7-1-0.1-1.5
		c-0.3-0.2-0.5-0.3-0.8-0.5c-0.2-0.1-0.4-0.2-0.5,0.1C71.2,47.5,70.6,49,69.9,50.5z M69.9,52.2c0.4,1.3,0.9,2.5,1.3,3.8
		c0.4,1.2,0.4,1.2,1.5,0.6c1.1-0.7,1.1-0.7,0.2-1.6c-0.3-0.3-0.5-0.6-0.8-0.9C71.4,53.4,71,52.6,69.9,52.2z"/>
	<path class="st0" d="M25.2,68.8c1.1-1,2.1-1.6,3.3-1.4c1.4,0.2,2.3,1,2.7,2.4c0.4,1.5,0.5,3,0,4.4c-0.7,2.6-3,3.4-5.3,2
		c-0.1-0.1-0.2-0.1-0.5-0.2c0,1.1,0,2,0,3c0.1,1-0.5,1-1.2,1c-0.7,0-1.3,0-1.2-1c0-3.4,0-6.9,0-10.3c0-0.6-0.2-1.2,0.7-1.2
		C24.6,67.5,25.5,67.3,25.2,68.8z M25.6,71.9c0,0.5,0,0.8,0,1.1c0.1,1,0.8,1.5,1.7,1.7c0.9,0.2,1.3-0.4,1.6-1.1
		c0.4-1.1,0.4-2.2-0.1-3.2c-0.4-1-1.4-1.2-2.3-0.6C25.7,70.3,25.5,71.1,25.6,71.9z"/>
	<path class="st0" d="M71.1,68.6c0.5-0.4,0.8-0.6,1.1-0.8c1.9-1.2,4.2-0.4,4.9,1.6c0.5,1.3,0.5,2.7,0.2,4c-0.5,3.1-3.4,4.3-5.8,2.4
		c-0.2,1-0.1,2-0.1,3c0.1,0.9-0.3,1.2-1.2,1.2c-0.9,0-1.3-0.2-1.2-1.2c0.1-3.4,0-6.7,0-10.1c0-0.5-0.2-1.2,0.7-1.2
		C70.5,67.4,71.3,67.2,71.1,68.6z M71.4,71.9c0,0.4,0,0.8,0,1.2c0.1,0.7,1.1,1.6,1.8,1.6c0.9,0,1.3-0.5,1.5-1.2
		c0.2-0.8,0.3-1.5,0.2-2.3c-0.2-0.8-0.4-1.6-1.3-1.8c-0.9-0.2-1.4,0.5-2,1.1C71.2,70.9,71.4,71.4,71.4,71.9z"/>
	<path class="st0" d="M58.2,72.1c-0.1-4.3,3.3-5.5,6.3-4.7c1.8,0.5,2.8,2.4,2.7,4.8c-0.3,3.5-2.7,5.2-6.1,4.4
		C59.2,76.1,58.2,74.6,58.2,72.1z M64.7,71.8c0-0.3,0-0.8-0.2-1.3c-0.3-0.8-0.9-1.3-1.8-1.3c-0.9,0-1.5,0.4-1.8,1.2
		c-0.4,1.1-0.4,2.2,0,3.2c0.3,0.8,0.9,1.1,1.6,1.1c0.8,0,1.5-0.3,1.8-1.1C64.7,73.2,64.7,72.6,64.7,71.8z"/>
	<path class="st0" d="M47.1,76.8c-0.6-0.1-1.3-0.1-1.9-0.3c-0.8-0.2-1-0.8-0.9-1.5c0-0.6,0.2-0.9,0.9-0.5c0.7,0.4,1.4,0.6,2.2,0.5
		c0.5-0.1,0.9-0.2,1-0.8c0.1-0.5-0.2-0.8-0.7-1c-0.6-0.3-1.3-0.5-1.9-0.8c-1.1-0.6-1.6-1.4-1.5-2.6c0.1-1.2,0.8-1.9,1.9-2.3
		c1.1-0.4,2.2-0.3,3.3,0.1c0.3,0.1,0.6,0.2,0.7,0.6c0.1,0.4,0.2,0.9,0,1.3c-0.3,0.5-0.7-0.1-1-0.1c-0.6-0.1-1.1-0.4-1.8-0.2
		c-0.4,0.1-0.6,0.3-0.7,0.7c0,0.4,0.2,0.6,0.5,0.8c0.5,0.3,1.1,0.5,1.7,0.7c1.6,0.7,2.1,1.6,1.9,3.1c-0.2,1.2-1.1,2.1-2.6,2.3
		C47.8,76.8,47.4,76.8,47.1,76.8z"/>
	<path class="st0" d="M52.6,72.2c0-0.6,0-1.2,0-1.8c0-0.6,0-1.1-0.8-1c-0.7,0.1-0.5-0.6-0.5-0.9c0-0.4-0.1-1,0.5-1
		c1,0.1,0.9-0.5,0.8-1.1c-0.1-1,0.3-1.2,1.2-1.2c0.8,0,1.4,0.2,1.2,1.2c-0.2,0.9,0.2,1.3,1.1,1.1c0.7-0.1,1.1,0.1,1.1,1
		c0,0.8-0.3,1.1-1.1,1c-0.9-0.1-1.2,0.2-1.1,1.1c0.1,1,0,2.1,0,3.1c0,0.8,0.4,1.2,1.2,1.1c0.3,0,0.8-0.5,0.9,0.2
		c0.1,0.6,0.3,1.2-0.5,1.6c-1.8,0.9-3.9-0.2-4-2.2C52.6,73.6,52.6,72.9,52.6,72.2C52.6,72.2,52.6,72.2,52.6,72.2z"/>
	<path class="st0" d="M38.6,72.2c0-0.5,0-0.9,0-1.4c0-0.7,0.3-1.5-1-1.4c-0.5,0-0.4-0.7-0.4-1.1c0-0.3,0-0.8,0.5-0.8
		c1,0.1,0.8-0.6,0.9-1.2c0-0.4-0.2-0.9,0.3-1c0.6-0.2,1.3-0.3,1.9,0c0.4,0.2,0.2,0.7,0.2,1.1c-0.1,0.9,0.2,1.2,1.1,1
		c0.7-0.1,1.2,0,1.2,0.9c0,0.9-0.4,1.2-1.2,1c-0.8-0.1-1.1,0.2-1.1,1c0.1,1,0,2.1,0,3.1c0,0.8,0.3,1.2,1.2,1.1
		c0.3,0,0.8-0.5,0.9,0.2c0.1,0.6,0.3,1.3-0.5,1.7c-1.9,0.9-3.9-0.3-4-2.3C38.6,73.6,38.6,72.9,38.6,72.2
		C38.6,72.2,38.6,72.2,38.6,72.2z"/>
	<path class="st0" d="M35.9,72.1c0,1.2,0,2.4,0,3.7c0,0.9-0.6,0.8-1.1,0.8c-0.6,0-1.3,0.2-1.3-0.8c0-2.5,0-5,0-7.5
		c0-1,0.7-0.8,1.3-0.8c0.6,0,1.2,0,1.1,0.9C35.8,69.6,35.9,70.9,35.9,72.1z"/>
	<path class="st0" d="M36,65.1c0.1,1-0.5,1.3-1.4,1.3c-0.8,0-1.4-0.2-1.4-1.2c0-0.9,0.4-1.4,1.3-1.4C35.5,63.8,36.1,64,36,65.1z"/>
	<path class="st0" d="M30.6,50.8c-0.1,0-0.2,0.1-0.2,0.1c0,0-0.1-0.1-0.1-0.1c0.1-0.1,0.2-0.1,0.2-0.2
		C30.6,50.6,30.6,50.7,30.6,50.8z"/>
	<path class="st0" d="M29.5,52.1c0.1,0,0.1-0.1,0.2-0.1c0,0.1,0,0.2,0,0.3C29.6,52.2,29.6,52.2,29.5,52.1z"/>
</g>
</svg>
