<svg xmlns="http://www.w3.org/2000/svg" width="20" height="20" fill="none" style=""><rect id="backgroundrect" width="100%" height="100%" x="0" y="0" fill="none" stroke="none" class="" style=""/>


<g class="currentLayer" style=""><title>Layer 1</title><path d="M14.931639909744263,19.77343988418579 H4.931639909744263 C4.521639909744266,19.77343988418579 4.181639909744263,19.433439884185788 4.181639909744263,19.02343988418579 C4.181639909744263,18.613439884185794 4.521639909744266,18.27343988418579 4.931639909744263,18.27343988418579 H14.931639909744263 C15.34163990974426,18.27343988418579 15.681639909744263,18.613439884185794 15.681639909744263,19.02343988418579 C15.681639909744263,19.433439884185788 15.34163990974426,19.77343988418579 14.931639909744263,19.77343988418579 z" fill="#ebeb1a" id="svg_1" class="" fill-opacity="1"/><path d="M18.281839909744264,3.292499884185787 L14.281839909744264,6.152499884185794 C13.751839909744263,6.532499884185789 12.991839909744265,6.302499884185792 12.76183990974426,5.692499884185793 L10.871839909744267,0.6524998841857936 C10.55183990974426,-0.21750011581421091 9.321839909744263,-0.21750011581421091 9.001839909744263,0.6524998841857936 L7.101859909744263,5.682499884185789 C6.871859909744259,6.302499884185792 6.121859909744259,6.532499884185789 5.591859909744265,6.1424998841857885 L1.5918599097442652,3.28249988418579 C0.7918599097442609,2.722499884185794 -0.26814009025573426,3.512499884185793 0.06185990974426403,4.442499884185793 L4.221859909744261,16.09253988418579 C4.361859909744261,16.49253988418579 4.741859909744264,16.752539884185794 5.1618599097442655,16.752539884185794 H14.69183990974426 C15.111839909744262,16.752539884185794 15.491839909744265,16.48253988418579 15.631839909744258,16.09253988418579 L19.79183990974426,4.442499884185793 C20.131839909744258,3.512499884185793 19.071839909744263,2.722499884185794 18.281839909744264,3.292499884185787 zM12.431839909744262,12.52253988418579 H7.4318599097442615 C7.021859909744265,12.52253988418579 6.6818599097442615,12.182539884185793 6.6818599097442615,11.77253988418579 C6.6818599097442615,11.362539884185793 7.021859909744265,11.02253988418579 7.4318599097442615,11.02253988418579 H12.431839909744262 C12.841839909744266,11.02253988418579 13.181839909744262,11.362539884185793 13.181839909744262,11.77253988418579 C13.181839909744262,12.182539884185793 12.841839909744266,12.52253988418579 12.431839909744262,12.52253988418579 z" fill="#ebeb1a" id="svg_2" class="" fill-opacity="1"/></g></svg>