<?xml version="1.0" encoding="utf-8"?>
<!-- Generator: Adobe Illustrator 24.0.2, SVG Export Plug-In . SVG Version: 6.00 Build 0)  -->
<svg version="1.1" id="Layer_1" xmlns="http://www.w3.org/2000/svg" xmlns:xlink="http://www.w3.org/1999/xlink" x="0px" y="0px"
	 viewBox="0 0 250 250" style="enable-background:new 0 0 250 250;" xml:space="preserve">
<style type="text/css">
	.st0{fill:#FDC917;}
</style>
<g>
	<g>
		<path d="M111.14,212c-0.79,0-1.54-0.15-2.24-0.44c-1.31-0.48-2.02-1.22-2.4-1.94c-2.83-2.39-4.61-5.57-5.17-9.25
			c-0.38-2.55-1.1-4.99-1.81-7.25c-0.57-1.81-1.17-3.46-1.82-5.04c-0.02-0.02-0.05-0.04-0.07-0.06c-0.23-0.2-0.54-0.46-0.85-0.83
			c-1.28-1.52-2.11-3.36-2.46-5.48c-0.95-2.12-1.49-4.4-1.64-6.94c-0.06-1.04-0.46-2.11-0.93-3.36c-0.23-0.61-0.46-1.24-0.67-1.89
			c-1-0.7-1.44-1.67-1.48-2.65l-1.78-4.25c-1.39-2.98-1.55-6.06-1.69-8.77c-0.07-1.33-0.14-2.59-0.33-3.79
			c-0.07-0.46-0.19-0.9-0.29-1.35c-0.24-1.01-0.52-2.16-0.53-3.46l-0.01-0.44c-0.02-0.91-0.03-1.95,0.17-3.11
			c0.01-0.16-0.12-0.7-0.2-1.05c-0.12-0.53-0.26-1.13-0.32-1.79c-0.17-1.73-0.2-4.01,1.04-6.35c0.27-0.51,0.68-0.92,1.17-1.2
			c0-0.01,0-0.01,0-0.02c-0.4,0.24-0.83,0.43-1.29,0.59c-0.49,0.17-0.98,0.35-1.46,0.54c-0.73,0.28-1.46,0.55-2.21,0.79
			c-0.86,0.27-1.72,0.41-2.55,0.41c-1.75,0-3.36-0.58-4.81-1.73c-3.39-2.7-5.81-6.13-7.95-9.17c-0.37-0.5-1.21-1.66-0.92-3.21
			c0.13-0.66,0.44-1.27,0.91-1.76c-0.99-0.96-1.77-1.96-2.4-3.06c-0.69-0.22-1.31-0.66-1.74-1.28c-0.64-0.91-0.79-2.08-0.41-3.12
			l0.03-0.12c0.15-0.63,0.51-2.12,2.11-3.01c0.64-0.36,1.35-0.55,2.1-0.56c0.6-1.27,1.86-1.77,2.77-1.77c0.41,0,0.8,0.08,1.17,0.23
			c0.51,0.02,0.95,0.1,1.32,0.16c0.21,0.04,0.47,0.08,0.58,0.08c0.19-0.04,0.55-0.09,0.96-0.09c1.16,0,1.94,0.44,2.42,0.88
			c0.14-0.06,0.31-0.14,0.44-0.19c0.37-0.16,0.75-0.33,1.12-0.46l0.1-0.04c0.2-0.07,0.47-0.17,0.79-0.25
			c-0.26-0.58-0.5-1.2-0.67-1.87c-1.65-0.71-2.42-1.81-2.78-2.67c-0.3-0.72-0.53-1.78-0.2-3.1c-2.16-0.99-2.72-2.64-2.84-3.64
			c-0.31-2.39,0.74-4.61,2.67-5.64c0.73-0.39,1.29-1.13,2.01-2.07l0.08-0.1c1.36-1.78,2.91-2.05,3.72-2.05
			c0.67,0,2.14,0.19,3.31,1.68c0.75-0.17,1.44-0.2,2.03-0.2c0.22,0,0.44,0,0.66,0.01c0.04-0.04,0.08-0.09,0.12-0.14
			c0.27-0.33,0.55-0.73,0.85-1.16c1.02-1.48,2.41-3.52,5.24-4.37c0.45-0.13,0.91-0.94,1.18-2.05c0.63-2.59,2.16-3.63,3.47-4.03
			c0.81-1.81,2.09-3.42,3.92-4.96c0.01-0.16,0.01-0.37,0.01-0.52c0-0.35,0-0.7,0.03-1.01c0.12-1.52,0.59-2.78,1.34-3.74
			c-1.35-1.47-1.47-1.53-3.16-2.34c-1.84-0.88-2.82-2.49-2.69-4.4c0.12-1.85,0.03-3.78-0.27-5.73c-0.43-2.75,1.13-4.08,2.29-4.67
			c-0.12-0.21-0.22-0.44-0.3-0.69c-0.66-0.33-1.32-0.79-1.88-1.47c-1.88-0.1-3.34-1.34-3.65-3.15c-0.46-2.66,0.78-4.01,1.91-4.68
			c0.8-0.47,1.25-0.84,1.53-1.24c0.45-0.65,1.5-1.75,3.45-1.75c0.18,0,0.37,0.01,0.56,0.02l0.17,0.01c0.04,0,0.08,0,0.11,0
			c0.09,0,0.18,0,0.27,0.01c0.52-0.39,1.17-0.62,1.84-0.62c0.13,0,0.32,0.01,0.54,0.03c1.01-0.41,2.09-0.61,3.29-0.61
			c0.99,0,1.94,0.14,2.77,0.26l0.13,0.02l0.13,0.01c1.58,0.13,2.41,0.81,2.83,1.49c0.81,0.27,2.22,0.88,2.8,2.59
			c0.07,0.21,0.34,0.41,1.1,0.88c0.38,0.23,0.8,0.5,1.24,0.82c1.1,0.61,1.58,1.38,1.76,2.08c0.34,0.1,0.73,0.21,1.14,0.38
			c0.69,0.29,1.2,0.65,1.57,1.03c0.63-0.19,1.31-0.48,2.08-0.85c1.19-0.57,2.31-0.58,3.13-0.59c0.17,0,0.38,0,0.52-0.01
			c0.52-0.38,1.14-0.57,1.76-0.57c0.73,0,1.46,0.26,2.03,0.79c0.09,0.05,0.54,0.16,0.84,0.24c1.08,0.27,2.71,0.68,3.95,2.18
			c0.18,0.18,0.5,0.52,0.74,1.03c0.96,2.04-0.82,7.62-2.81,8.77l-0.26,0.15c-0.22,0.13-0.53,0.3-0.69,0.42
			c-0.16,1.34-0.92,2.46-2.01,3.1c0.26,0.25,0.51,0.57,0.7,0.96c0.23,0.47,0.42,1.13,0.33,1.96c0.71,1.04,0.79,2.02,0.71,2.68
			c-0.18,1.62-1.34,2.53-1.84,2.92c-0.51,0.4-1,0.58-1.32,0.69c-0.35,0.26-0.73,0.5-1.14,0.7c0.03,0.15,0.05,0.29,0.07,0.43
			c0.95,0.52,1.51,1.46,1.96,2.21l0.14,0.23c1.81,0.11,3.59,1.33,4.49,3c1.11,0.36,1.88,1.03,2.39,1.48
			c0.13,0.12,0.32,0.28,0.39,0.33c1.11,0.62,1.8,1.71,1.84,2.9c0.05,1.2-0.54,2.3-1.62,3.02c-1.23,0.82-1.89,1.89-2.12,3.45
			c-0.04,0.24-0.09,0.46-0.15,0.67c0.19,0.1,0.37,0.21,0.56,0.34c0.35,0.25,0.71,0.46,1.08,0.68c1.01,0.61,2.28,1.37,3.34,2.65
			c0.17,0.18,0.98,0.44,1.47,0.6l0.5,0.17c0.2,0.07,0.42,0.13,0.63,0.2c1.3,0.4,3.08,0.94,4.58,2.56c0.02,0.01,0.03,0.02,0.05,0.02
			c0.56-0.28,1.16-0.42,1.78-0.42c0.61,0,1.15,0.14,1.61,0.32c0.38-0.09,0.78-0.14,1.18-0.14c1.21,0,2.21,0.42,2.93,0.73
			c0.25,0.1,0.55,0.23,0.68,0.26c1.34,0.28,2.21,1.36,2.5,2.49c0.31,0.09,0.68,0.22,1.07,0.41c0.33-0.1,0.68-0.16,1.07-0.16
			c0.91,0,1.97,0.38,2.72,1.33c1.15,0,2.31,0.26,3.43,0.76c0.25-0.03,0.51-0.05,0.77-0.05c0.88,0,1.65,0.19,2.27,0.35
			c0.23,0.06,0.5,0.13,0.69,0.16c-0.74-1.53-0.32-3.11-0.15-3.76c0.03-0.12,0.07-0.23,0.09-0.35c0.1-0.83,0.39-1.74,0.88-2.78
			c1.16-2.49,4.04-2.8,4.99-2.9c0.15-0.02,0.3-0.02,0.44-0.02c1.14,0,2.22,0.5,2.96,1.36c0.81,0.95,1.16,2.26,0.95,3.58
			c-0.11,0.72-0.15,1.42-0.12,2.14c0.9,0.03,1.62,0.3,2.16,0.49c0.09,0.03,0.19,0.07,0.28,0.1c0.27-0.08,0.51-0.13,0.71-0.18
			c0.08-0.02,0.16-0.03,0.24-0.05c0.62-0.58,1.46-0.9,2.4-0.9c0.44,0,1.1,0.07,1.75,0.42c0.42,0.23,0.84,0.32,1.41,0.32
			c0.22,0,0.46-0.02,0.71-0.04c-0.29-0.52-0.47-1.11-0.54-1.76c-0.16-1.46,0.39-2.4,0.87-2.94c1.05-1.17,2.44-1.18,2.97-1.19l0.05,0
			c0.54-0.1,1.09-0.25,1.67-0.4c0.52-0.79,1.14-1.38,1.64-1.85c0.29-0.27,0.68-0.65,0.75-0.81c0.27-0.58,1.11-2.38,3.41-2.83
			c0.48-0.1,1.05-0.34,1.93-1.45c0.65-0.83,2.17-2.76,4.77-2.76c0.84,0,1.69,0.21,2.54,0.63c0.06,0.01,0.12,0.01,0.18,0.02
			c0.41-0.42,0.82-0.7,1.12-0.9c0.08-0.05,0.15-0.1,0.22-0.16c1.07-1.06,2.21-1.29,2.97-1.29c1.42,0,2.37,0.75,2.88,1.16
			c0.04,0.04,0.09,0.07,0.14,0.11c0.61,0.33,1.28,0.98,1.55,1.9c0.46,0.38,1.47,1.24,1.72,2.7c0.16,0.03,0.31,0.05,0.39,0.05
			c0.04,0,0.12,0,0.17,0c2.83,0,3.76,2.73,4.06,3.63c0.47,1.39,0.33,3.23-1.4,4.35c0.07,0.1,0.27,0.42,0.27,0.42
			c0.73,1.09,0.67,2.54-0.16,3.56c-0.72,0.89-1.71,1.38-2.79,1.38l0,0c-1.02,0-1.74-0.45-2.05-0.64l0.06,0.03
			c-0.16-0.08-0.31-0.17-0.45-0.27c-0.02,0-0.04,0.01-0.06,0.01c-0.18,0.04-0.4,0.1-0.55,0.14c-1.01,1.24-2.18,2.15-3.23,2.95
			c-0.2,0.16-0.4,0.31-0.6,0.47c0.43,2.83-0.74,5-1.86,6.41c0.05,0.12,0.1,0.25,0.13,0.39c0.43,1.51-0.28,2.72-0.55,3.18
			c-0.21,0.41-0.4,0.76-0.59,1.12c-0.66,1.23-1.28,2.39-1.52,3.54c-0.4,1.95-1.8,2.75-2.99,2.87c0.11,1.29,0.05,3.1-1.31,4.64
			c1.2,2.72-0.53,4.76-1.13,5.47c-0.1,0.12-0.21,0.23-0.29,0.36c-0.33,0.51-0.74,0.81-0.91,0.94c-0.53,0.41-1.18,0.63-1.83,0.63
			c-0.21,0-0.43-0.02-0.64-0.07c-0.46-0.1-0.89-0.31-1.25-0.6c-2.29-0.58-2.89-2.19-3.04-3.13c-0.12-0.73-0.33-1.48-0.57-2.27
			c-0.68,0.46-1.38,0.62-1.65,0.67c-0.22,0.04-0.43,0.06-0.63,0.06c-0.38,0-1.38-0.08-2.25-0.83c-0.17-0.05-0.34-0.12-0.51-0.21
			c-1.66-0.79-1.83-2.28-1.83-2.73c0-0.29-0.14-0.72-0.27-1.14c-0.09-0.29-0.19-0.59-0.27-0.88c-0.83-3.06,0.51-5.53,3.49-6.44
			c0.32-0.1,0.74-0.41,1.22-0.78c0.02-0.02,0.07-0.05,0.07-0.05c-0.48-0.02-0.95-0.03-1.39-0.03c-0.72,0-1.44,0.02-2.17,0.03
			c-0.77,0.02-1.54,0.04-2.31,0.04c-0.3,0-0.59,0-0.89-0.01c-1.09-0.02-2.01-0.29-2.74-0.51c-0.41-0.12-0.76-0.22-1.03-0.25
			c-0.68-0.08-1.3-0.34-1.81-0.75c-0.13,0.24-0.29,0.47-0.47,0.67c-0.36,0.4-0.96,0.86-1.85,1.05c0.93,0.61,1.59,1.5,1.86,2.54
			c0.27,1.04,0.12,2.13-0.4,3.1c0.21,0.37,0.35,0.73,0.42,1.08c0.71,0.72,1.25,1.85,1.11,3.64c0,0.01,0,0.03,0,0.04
			c0.26,0.84,0.39,1.68,0.51,2.44c0.04,0.29,0.09,0.57,0.14,0.85c0.31,1.72-0.59,3.24-2.24,3.8c-0.18,0.06-0.3,0.11-0.38,0.14
			c-0.36,0.96-1.21,2.05-3.19,2.34c-0.36,0.13-0.76,0.2-1.11,0.2c-0.16,0-0.35-0.01-0.55-0.05c-0.43,0.41-0.97,0.83-1.65,1.12
			c-0.54,0.59-1.21,0.95-2,1.09c-0.13,0.02-0.24,0.04-0.34,0.06c0.01,0.04,0.02,0.07,0.03,0.11c0.31,0.45,0.5,0.98,0.53,1.54
			c0.06,1.03-0.42,2.02-1.26,2.62c-0.02,0.04-0.19,0.33-0.31,0.55c-0.42,0.74-1.05,1.86-2.3,2.65l-0.15,0.09
			c-1.33,2.05-3.47,2.5-4.42,2.7c-0.11,0.02-0.41,0.15-0.62,0.25c-0.31,0.14-0.62,0.27-0.93,0.38c-0.21,0.08-0.58,0.21-1.05,0.26
			c-0.22,0.24-0.5,0.48-0.86,0.68c-0.07,0.06-0.3,0.35-0.46,0.56c-0.44,0.57-1.04,1.34-1.97,1.95c-0.05,0.03-0.1,0.06-0.16,0.09
			c-0.32,0.18-0.69,0.63-1.12,1.15c-0.5,0.6-1.06,1.29-1.83,1.91c-0.17,0.14-0.34,0.29-0.5,0.44c-0.44,0.4-0.98,0.9-1.69,1.33
			c-0.2,0.12-0.4,0.24-0.6,0.36c-0.82,0.48-1.33,0.79-1.5,1.16c-0.65,1.36-1.95,2.34-3.39,2.57c-0.25,0.04-0.71,0.4-1.16,0.75
			c-0.24,0.19-0.49,0.38-0.76,0.58c-0.29,2.9-2.9,5.35-5.83,5.35c-0.38,0-0.75-0.04-1.11-0.12c-0.28,0.47-0.58,0.87-0.84,1.2
			c-0.1,0.13-0.2,0.26-0.3,0.4c-0.76,1.07-1.9,1.69-3.12,1.69c-0.45,0-0.9-0.08-1.33-0.25c-0.44,0.87-0.49,1.66-0.19,2.71
			c0.38,1.35,0.21,2.57,0.07,3.55c-0.06,0.44-0.15,1.05-0.08,1.25c0.2,0.59,0.26,1.13,0.3,1.53c0.01,0.1,0.02,0.2,0.04,0.29
			c0.02,0.1,0.03,0.21,0.03,0.31c0.18,3.56-0.05,7.63-3.07,11c-0.15,0.41-0.33,0.76-0.52,1.06c0.25,0.73,0.34,1.42,0.38,1.92
			c0.08,1.02-0.03,1.99-0.3,2.86c0.59,1.14,0.71,2.5,0.31,3.94c-0.45,1.64-1.84,2.7-3.53,2.7c-0.19,0-0.36-0.01-0.51-0.03
			c-0.28,0.75-0.73,1.34-1.13,1.8c0.35,0.67,0.45,1.46,0.24,2.21c-0.36,1.26-1.45,2.16-2.76,2.2c-0.65,0.02-1.25,0.23-2.02,0.49
			c-0.33,0.11-0.65,0.22-0.97,0.32C117.77,209.27,114.57,212,111.14,212z M177.26,130.14L177.26,130.14z"/>
	</g>
	<path class="st0" d="M222.06,88.71c0.4-0.3,1.1-0.27,0.81-1.11c-0.25-0.73-0.55-1.69-1.28-1.66c-1.47,0.06-2.98-0.98-4.38,0.17
		c-0.45-0.84,0.15-1.46,0.5-1.8c0.89-0.87,0.11-1.49-0.3-1.83c-0.52-0.42-2.31,0.21-0.94-1.45c0,0-0.06-0.08-0.1-0.1
		c-0.78-0.39-1.37-1.53-2.48-0.43c-0.55,0.54-1.4,0.77-1.64,1.63c-0.12,0.42-0.5,0.53-0.84,0.42c-0.77-0.24-1.67-0.11-2.31-0.44
		c-1.78-0.93-2.79,0.02-3.74,1.24c-0.98,1.24-2.1,2.22-3.7,2.54c-0.64,0.13-0.96,0.48-1.28,1.16c-0.68,1.45-2.42,2.17-2.98,3.8
		c-0.03,0.08-0.14,0.16-0.23,0.18c-1.04,0.27-2.08,0.58-3.14,0.77c-0.6,0.11-1.45-0.22-1.33,0.85c0.09,0.88,0.63,1.33,1.57,1.04
		c0.5-0.15,0.99,0.23,0.86,0.51c-0.5,1.07,0.55,1.93,0.27,2.93c-1.11-0.02-2.25,0.17-3.28,0.35c-1.91,0.33-3.65,0.55-5.4-0.4
		c-0.18-0.1-0.59-0.09-0.69,0.03c-0.68,0.79-1.72,0.68-2.56,1.06c-1.11,0.18-2.05-0.63-3.06-0.63c-1.3,0-2.08-0.52-2.68-1.55
		c-0.19-1.35-0.19-2.7,0.03-4.06c0.13-0.79-0.27-1.55-1.06-1.47c-0.95,0.1-2.19,0.34-2.59,1.2c-0.25,0.53-0.54,1.24-0.62,1.89
		c-0.13,1.02-0.89,2.16,0.37,3.03c0.16,0.69,0.8,1.25,0.52,2.05c-0.05,0.12-0.11,0.25-0.16,0.37c-0.01,0.1-0.01,0.19,0,0.29
		c-0.67,0.68-1.65,0.46-2.38,0.79c-1.85,0.82-3.58-0.92-5.36-0.03c-0.07,0.03-0.24-0.16-0.37-0.23c-1.21-0.64-2.48-0.91-3.83-0.61
		c-0.47,0.1-0.89-0.05-0.95-0.47c-0.2-1.37-0.84-1.05-1.63-0.53c-0.19,0.12-0.66,0.17-0.68,0.13c-0.64-1.55-3.6-0.51-3.37-3.01
		c0.01-0.12-0.12-0.35-0.22-0.37c-1.44-0.3-2.78-1.63-4.37-0.44c-0.58-0.39-1.22-0.91-1.91-0.54c-1.39,0.75-2.93-0.01-3.51-0.66
		c-1.15-1.28-2.68-1.55-4-1.99c-1.25-0.42-2.53-0.74-3.33-1.7c-1.08-1.3-2.56-1.89-3.84-2.8c-0.81-0.58-1.95-0.1-2.59-0.98
		c-0.31-0.48-0.25-0.91,0.08-1.37c0.34-0.49,0.8-1,0.88-1.54c0.35-2.36,1.44-4.2,3.42-5.52c0.46-0.31,0.3-0.61-0.04-0.8
		c-0.94-0.53-1.53-1.6-2.77-1.66c-0.53-0.02-0.83-0.34-1-0.92c-0.33-1.15-1.58-1.9-2.38-1.84c-1.38,0.1-1.78-0.73-2.23-1.49
		c-0.98-1.64-0.92-1.68-2.21-0.53c-0.63-1.29,0.22-2.83-0.67-4.08c-0.6-0.84-0.7-1.82-0.79-2.81c-0.12-0.13-0.25-0.26-0.37-0.38
		c0,0,0.04-0.09,0.04-0.09c0.52-0.28,1.04-0.56,1.59-0.85c0.36,2.04,0.86,2.28,2.39,1.1c0.34-0.27,0.74-0.24,1.04-0.48
		c0.58-0.46,1.04-0.88,0.4-1.68c-0.32-0.39-0.86-0.84-0.56-1.45c0.44-0.88-0.08-1.02-0.74-1.15c-1.06-0.21-1.59-1.03-1.03-1.84
		c0.44-0.64,0.32-1.04,0.17-1.59c-0.29-1,0.07-1.35,1.03-0.99c0.96,0.36,1.65-0.27,1.71-0.92c0.15-1.62,1.3-2.16,2.42-2.81
		c0.65-0.38,1.92-4.24,1.61-4.9c-0.06-0.13-0.2-0.22-0.29-0.34c-1.16-1.47-3.26-0.99-4.55-2.17c-1.2,1.02-2.77,0.24-4.11,0.88
		c-1.78,0.85-3.66,1.61-5.86,1.32c0.6-0.67,0.71-1.04-0.24-1.43c-1.14-0.48-2.85-0.42-2.89-2.35c0-0.14-0.39-0.26-0.57-0.41
		c-1.23-0.97-2.87-1.44-3.47-3.2c-0.35-1.04-2.22-0.53-2.5-1.94c-0.02-0.1-0.56-0.1-0.85-0.15c-1.68-0.25-3.35-0.52-4.99,0.31
		c-0.39,0.2-1.38-0.04-1.39,0.04c-0.31,1.67-1.34,0.56-2.06,0.59c-0.62,0.02-1.33-0.23-1.79,0.43c-0.64,0.92-1.52,1.55-2.46,2.11
		c-0.68,0.4-0.58,1.01-0.48,1.58c0.1,0.6,0.6,0.71,1.15,0.67c0.55-0.04,1.21-0.08,1.47,0.48c0.64,1.36,1.93,1.59,3.28,1.99
		c-1.02,1.01-0.3,1.53,0.51,1.92c0.98,0.48,0.95,1.31,0.28,1.72c-0.84,0.51-1.52,1.32-2.31,1.67c-0.94,0.42-0.94,0.95-0.84,1.6
		c0.33,2.13,0.45,4.26,0.3,6.4c-0.05,0.78,0.41,1.21,0.99,1.49c2.1,1.01,2.47,1.27,4.21,3.17c0.11,0.12,0.36,0.1,0.55,0.15
		c0.51,0.14,1.04,0.23,1.54,0.43c0.66,0.26,1.32,0.6,1.21,1.47c-0.11,0.89-0.82,0.81-1.49,0.85c-1.74,0.12-2.39,1.3-2.51,2.94
		c-0.08,1.09,0.22,2.53-0.81,3.37c-1.89,1.53-3.35,3.3-3.94,5.7c-1.51-0.2-2.36,0.31-2.75,1.93c-0.44,1.81-1.38,3.66-3.23,4.22
		c-2.48,0.75-3.27,2.94-4.66,4.59c-0.65,0.77-1.2,1.25-2.19,1.22c-1.09-0.04-2.17-0.09-3.21,0.46c-0.77,0.41-1.33-0.03-1.66-0.76
		c-0.66-1.46-1.7-1.62-2.68-0.33c-0.88,1.15-1.71,2.28-3.06,3c-0.94,0.5-1.23,1.68-1.11,2.62c0.13,0.98,1.15,1.4,2.1,1.62
		c1.4,0.33,1.71,0.96,1.04,2.23c-0.88,1.67-0.38,2.83,1.42,3.37c0.39,0.12,1.01-0.03,1.03,0.63c0.07,2.22,1.45,3.88,2.39,5.73
		c-0.47,0.15-0.7,0.61-0.5,0.94c0.89,1.53-1.08,0.57-1.18,1.35c-0.02,0.16-1.1,0.16-1.23-0.56c-0.2-1.1-0.9-0.73-1.46-0.53
		c-1.52,0.52-2.99,1.76-4.55,0.05c-0.14-0.16-0.59-0.12-0.87-0.07c-1.08,0.21-2.12-0.37-3.22-0.16c-0.15,0.03-0.45-0.69-0.48,0.11
		c-0.06,1.47-0.98,1.62-2.14,1.43c-0.4-0.07-0.78-0.07-1.15,0.14c-0.61,0.34-0.58,1-0.78,1.54c-0.1,0.28,0.15,0.58,0.37,0.5
		c1.07-0.38,1.09,0.5,1.39,1.07c0.76,1.44,1.8,2.56,3.09,3.63c1.75,1.44,4.58,1.17,6.3,0.3c0.53-0.27,1.05-1.09,1.56-0.55
		c0.49,0.52-0.26,1.19-0.53,1.76c-0.16,0.34-0.5,0.66-0.84,0.84c-1.84,0.98-3.81,1.53-5.9,1.65c-0.11,0.01-0.32-0.13-0.34-0.22
		c-0.11-0.65-0.58-0.89-1.05-0.59c-0.61,0.38-0.13,0.91,0.14,1.29c2.18,3.09,4.37,6.16,7.36,8.55c1.4,1.11,2.93,1.34,4.58,0.81
		c1.22-0.39,2.4-0.89,3.61-1.31c1.7-0.58,3.02-2.33,2.78-4.09c-0.21-1.53,0.45-2.3,1.88-2.92c-0.34,1.28-0.91,2.73-0.35,3.45
		c0.94,1.2-0.07,2.13,0.15,3.14c0.03,0.14,0.1,0.28,0.18,0.4c0.73,1.05,0.79,2.17,0.43,3.36c-0.16,0.54-0.32,1.08,0.39,1.37
		c0.9,0.37,0.43,0.94,0.23,1.47c-0.18,0.5-0.58,0.74-1.05,0.63c-1.04-0.24-0.08-1.49-0.9-1.94c-0.8,1.51-0.86,3.03-0.71,4.66
		c0.12,1.25,0.69,2.51,0.49,3.65c-0.18,1.04-0.13,1.99-0.12,2.99c0.02,1.51,0.55,2.91,0.79,4.36c0.64,3.94,0.03,8.07,1.81,11.83
		c0.7,1.67,1.4,3.33,2.09,5c-0.35,0.98,0.88,0.66,1.03,1.27c0.55,2.34,1.84,4.47,1.99,6.92c0.14,2.19,0.61,4.28,1.55,6.26
		c0,0,0,0,0,0c0.21,1.64,0.77,3.13,1.85,4.41c0.41,0.49,1.03,0.78,1.29,1.42c0.76,1.82,1.42,3.66,2.02,5.55
		c0.8,2.54,1.52,5.05,1.92,7.71c0.48,3.19,2.1,5.93,4.77,7.91c-0.03,0.68,0.54,0.78,0.98,0.96c2.13,0.88,5.19-1.14,5.57-3.88
		c0.16-1.14,0.81-1.65,1.62-1.86c1.32-0.34,2.55-1,4.17-1.05c-1.26-0.83-1.12-1.64-0.41-2.51c0.53-0.66,1.33-1.32,1.43-2.06
		c0.22-1.54,1.16-1.63,2.32-1.71c0.54-0.04,1.33,0.42,1.56-0.41c0.22-0.81,0.23-1.68-0.54-2.32c-0.25-0.21-0.6-0.35-0.21-0.81
		c1.01-1.17,0.82-4.06-0.35-5.06c-0.47-0.4-0.38-1.09-0.12-1.02c1.5,0.4,1.25-0.99,1.8-1.56c2.47-2.58,2.68-5.77,2.51-9.07
		c-0.07-0.44-0.08-0.9-0.22-1.32c-0.56-1.67,0.41-3.39-0.02-4.94c-0.61-2.17-0.28-3.97,0.94-5.78c0.84-1.24,1.74-1.49,3.01-0.65
		c0.44,0.29,0.84,0.16,1.14-0.27c0.37-0.52,0.81-1,1.1-1.56c0.67-1.29,1.59-1.68,3.01-1.26c1.59,0.47,3.43-1.09,3.45-2.77
		c0-0.52-0.17-1.13,0.47-1.46c1.36-0.7,2.32-2.07,3.95-2.33c0.52-0.08,0.96-0.49,1.15-0.9c0.68-1.42,2.02-2.03,3.23-2.78
		c0.72-0.44,1.26-1.06,1.88-1.56c1.25-1.01,1.94-2.54,3.36-3.34c1.05-0.68,1.48-1.98,2.59-2.61c0.31-0.17,0.04-0.28-0.06-0.5
		c-0.5-1.08,0.57-1.2,1.13-1.53c0.61-0.36,0.91-0.16,0.73,0.64c-0.12,0.53,0.34,0.32,0.56,0.24c0.65-0.23,1.27-0.6,1.94-0.74
		c1.11-0.23,2.1-0.54,2.67-1.65c0.17-0.32,0.58-0.53,0.91-0.74c1.19-0.76,1.36-2.33,2.5-3.13c-0.12-0.07-0.24-0.13-0.36-0.19
		c-0.01-0.19,0.02-0.4-0.04-0.58c-0.86-2.8-0.39-3.53,2.64-4.06c0.43-0.08,0.46-0.48,0.68-0.72c1.69-0.16,2.05-2.07,3.45-2.61
		c0.25,0.39,0.32,1.28,0.68,1.09c0.47-0.24,1.24-0.04,1.42-0.62c0.35-1.14,1.24-1.55,2.21-1.88c0.26-0.09,0.29-0.21,0.26-0.41
		c-0.2-1.07-0.29-2.21-0.64-3.18c-0.3-0.83,0.61-2.31-1.09-2.56c-0.04-0.01-0.05-0.47,0-0.71c0.08-0.45-0.07-0.73-0.43-1.01
		c-0.81-0.63-0.95-1.2-0.08-2.06c1.01-0.99,0.58-2.15-0.8-2.52c-0.74-0.2-1.42-0.51-1.97-1.02c-0.38-0.35-0.92-0.81-0.46-1.39
		c0.3-0.38-0.07-1.57,1.15-1.02c0.31,0.14,0.71-0.43,0.73-0.77c0.07-0.97,0.7-0.88,1.36-0.94c0.48-0.04,1.34,0.27,1.26-0.52
		c-0.04-0.39-0.63-1.3-1.23-1.18c-1.4,0.27-1.42-1.31-2.32-1.53c-1.67-0.42-0.4-1.68-0.79-2.45c0.85,0.08,1.14-0.68,1.58-1.14
		c0.57-0.6,0.94-0.36,1.29,0.13c0.25,0.35,1.24,0.58,1.43,0.25c0.12-0.21-0.45-0.71,0.22-0.69c0.38,0.01,0.42,0.45,0.54,0.79
		c0.55,1.51,1.65,1.76,2.75,0.64c0.25-0.25,0.49-0.3,0.8-0.2c0.24,1.26,0.39,2.53,0.23,3.82c-0.28,0.45-0.29,1.02,0.24,1.08
		c1.19,0.14,2.25,0.72,3.49,0.75c3.63,0.08,7.3-0.43,10.89,0.55c-0.29,0.52,0.61,0.65,0.4,1.11c-0.37,0.45-1.16-0.35-1.12,0.18
		c0.07,1.13-0.78,1.9-0.85,2.92c-1,0.65-1.85,1.53-3.04,1.9c-1.44,0.44-1.87,1.31-1.47,2.79c0.25,0.91,0.64,1.77,0.65,2.74
		c0,0.04,0.14,0.08,0.22,0.13c0.28-0.22,0.05-0.71,0.45-0.87c0.36,0.28,0.24,0.73,0.38,1.08c0.12,0.3,0.29,0.54,0.65,0.48
		c0.3-0.05,0.74-0.29,0.66-0.5c-0.46-1.23,0.72-2.05,0.69-3.15c0.11-0.08,0.21-0.17,0.32-0.25c0.56-0.35,1.39-0.29,1.64-1.1
		c0.46,0.32,0.58,0.8,0.6,1.31c0.08,2.71,1.38,5.14,1.8,7.78c0.17,1.05,1.58,0.44,1.97,1.28c0.08-0.06,0.17-0.11,0.22-0.19
		c0.66-1.03,2.01-1.78,0.97-3.41c-0.33-0.52-0.68-1.77-0.07-2.14c1.87-1.13,1.38-2.72,1.21-4.31c-0.09-0.84-0.82-1.51-0.7-2.41
		c1.05-0.44,2.1-0.2,3,0.27c0.62,0.33,0.79,0.2,0.9-0.32c0.41-1.96,1.45-3.62,2.35-5.36c0.21-0.41,0.74-1.03,0.02-1.41
		c-0.81-0.43-0.36-0.99-0.33-1.53c1.68-1.66,2.9-3.45,2.16-6.01c-0.2-0.7,0.3-1.27,0.89-1.76c1.32-1.08,2.77-2.01,3.85-3.39
		c0.8-1.02,2.16-0.92,3.23-1.39c0.74-0.32,0.92,0.6,1.41,0.85c0.31,0.16,0.65,0.54,1.08,0.01c-0.13-0.19-0.24-0.4-0.4-0.58
		C220.22,90.7,220.28,90.03,222.06,88.71z"/>
</g>
</svg>
