<svg width="817" height="818" viewBox="0 0 817 818" fill="none" xmlns="http://www.w3.org/2000/svg">
<path d="M0.167969 409C0.167969 102.7 102.267 0.601562 408.567 0.601562C714.864 0.601562 816.965 102.7 816.965 409C816.965 715.298 714.864 817.397 408.567 817.397C102.267 817.397 0.167969 715.298 0.167969 409Z" fill="#FFC158"/>
<path fill-rule="evenodd" clip-rule="evenodd" d="M413.3 199.403L253.443 443.866C248.372 451.621 253.936 461.907 263.202 461.907H345.539H387.996H409.756L382.607 610.113C380.314 622.629 396.87 629.245 403.835 618.595L563.691 374.132C568.762 366.377 563.199 356.091 553.933 356.091H455.321H429.139H407.379L434.527 207.885C436.82 195.369 420.264 188.753 413.3 199.403Z" fill="white"/>
</svg>
