<svg id="Layer_1" data-name="Layer 1" xmlns="http://www.w3.org/2000/svg" viewBox="0 0 280 60"><defs><style>.cls-1{fill:#e93a33}</style></defs><path class="cls-1" d="M257 34.42 245.63 1.56H255l5.56 17.91.93 5.43.64-5.43 5.45-17.91H277l-11.45 32.86v23.67H257zM158 43.71a15.77 15.77 0 0 1-3.06 10 11.07 11.07 0 0 1-5.83 4 16.15 16.15 0 0 1-4.71.62 13.33 13.33 0 0 1-8.26-2.47 13.82 13.82 0 0 1-4.33-5.49 22.27 22.27 0 0 1-1.86-8l8.08-.58c.36 3.28 1.22 5.65 2.6 7.13a4.31 4.31 0 0 0 3.5 1.57 5.24 5.24 0 0 0 4.44-2.74 6.77 6.77 0 0 0 .86-3.73c0-2.33-1.07-4.65-3.19-7L138.69 30a32.4 32.4 0 0 1-6-7.33 17 17 0 0 1-1.88-7.9c0-5.13 1.72-9 5.16-11.64A12.79 12.79 0 0 1 143.9.76a14.39 14.39 0 0 1 7.76 2 11.75 11.75 0 0 1 4.06 4.4 16.33 16.33 0 0 1 1.87 6.51l-8.13 1.47a9.88 9.88 0 0 0-2-5.38 4.17 4.17 0 0 0-3.37-1.39 3.86 3.86 0 0 0-3.54 2.07 7.94 7.94 0 0 0-1 4.13c0 2.57 1.11 5.18 3.32 7.85a27.4 27.4 0 0 0 3.81 3.58c2 1.65 3.27 2.81 3.9 3.46a29 29 0 0 1 4.85 6.19 23.66 23.66 0 0 1 1.3 2.65 15.41 15.41 0 0 1 1.27 5.41zM168.27 10h-9V1.48h26.47V10h-9v47.7h-8.48zM201.43.76a13 13 0 0 1 9.54 4 13.05 13.05 0 0 1 3.92 9.52v30.64a13.44 13.44 0 1 1-26.88 0V14.23a13 13 0 0 1 4-9.54 12.94 12.94 0 0 1 9.42-3.93zM206.05 14a4.81 4.81 0 0 0-4.84-4.84 4.76 4.76 0 0 0-3.46 1.41 4.65 4.65 0 0 0-1.44 3.43v30.83a4.61 4.61 0 0 0 1.44 3.43 4.77 4.77 0 0 0 3.46 1.42 4.83 4.83 0 0 0 4.84-4.85zM231.32 1.48q7.1 0 10.42 3.91 2.91 3.41 2.91 9.51v8.16a13.14 13.14 0 0 1-4.53 10.1l6.28 24.55h-9.17l-5.14-21.18h-5.66v21.18H218V1.48zM236.4 15q0-4.89-4.85-4.89h-5.12v18h5.12A4.64 4.64 0 0 0 235 26.7a4.8 4.8 0 0 0 1.41-3.45zM11.56 33.58.15.72h9.38l5.56 17.91.91 5.43.64-5.43L22.11.72h9.42L20.08 33.58v23.66h-8.52zM45.84 0a13 13 0 0 1 9.58 4 13.06 13.06 0 0 1 3.95 9.55v30.84a13.52 13.52 0 0 1-13.53 13.53 12.94 12.94 0 0 1-9.55-4 13.1 13.1 0 0 1-3.93-9.56v-30.8a13 13 0 0 1 4-9.57A13 13 0 0 1 45.84 0zm4.64 13.34a4.83 4.83 0 0 0-4.86-4.86 4.77 4.77 0 0 0-3.47 1.41 4.65 4.65 0 0 0-1.45 3.45V44.3a4.67 4.67 0 0 0 1.45 3.46 4.77 4.77 0 0 0 3.47 1.41 4.83 4.83 0 0 0 4.86-4.87zM79.29 57.87a13.4 13.4 0 0 1-13.48-13.43V.76h8.34v43.59a4.63 4.63 0 0 0 1.45 3.45 4.8 4.8 0 0 0 3.47 1.42 4.83 4.83 0 0 0 4.86-4.87V.76h8.88v43.68a12.86 12.86 0 0 1-4 9.56 13.2 13.2 0 0 1-9.52 3.87zM112.53.76q7.13 0 10.46 3.93 2.92 3.42 2.93 9.55v8.2a13.17 13.17 0 0 1-4.56 10.14l6.31 24.66h-9.21L113.3 36h-5.68v21.24H99.1V.76zm5.09 13.62q0-4.92-4.87-4.92h-5.13v18.08h5.13a4.65 4.65 0 0 0 3.46-1.45 4.76 4.76 0 0 0 1.41-3.46z"/></svg>