<?xml version="1.0" encoding="utf-8"?>
<!-- Generator: Adobe Illustrator 24.0.2, SVG Export Plug-In . SVG Version: 6.00 Build 0)  -->
<svg version="1.1" id="Layer_1" xmlns="http://www.w3.org/2000/svg" xmlns:xlink="http://www.w3.org/1999/xlink" x="0px" y="0px"
	 viewBox="0 0 250 250" style="enable-background:new 0 0 250 250;" xml:space="preserve">
<style type="text/css">
	.st0{fill:#FDC917;}
	.st1{fill:#BF8E04;}
	.st2{fill:#FEC9A3;}
	.st3{fill:#EBEBEB;}
	.st4{fill:#EE5A24;}
	.st5{fill:#2A7DB8;}
	.st6{fill:#F0B081;}
	.st7{fill:#F7BB8F;}
	.st8{fill:#87CED9;}
	.st9{fill:#59B3C2;}
	.st10{fill:#71C4D1;}
</style>
<g>
	<path class="st0" d="M177.98,142.37c0-9.51-7.71-17.22-17.22-17.22H91.89c-9.51,0-17.22,7.71-17.22,17.22v20.09l11.48,5.74h91.83
		V142.37z"/>
	<path class="st1" d="M160.76,125.16h-11.48c9.51,0,17.22,7.71,17.22,17.22v25.83h11.48v-25.83
		C177.98,132.86,170.27,125.16,160.76,125.16z"/>
	<polygon class="st2" points="114.85,105.07 114.85,125.16 126.33,142.37 137.8,125.16 137.8,105.07 	"/>
	<polygon class="st3" points="114.85,125.16 126.33,142.37 137.8,125.16 	"/>
	<rect x="89.02" y="148.11" class="st4" width="5.74" height="20.09"/>
	<rect x="157.89" y="148.11" class="st4" width="5.74" height="20.09"/>
	<polygon class="st4" points="143.54,125.16 137.8,125.16 126.33,142.37 114.85,125.16 109.11,125.16 109.11,136.63 123.46,141.42 
		123.46,168.2 129.2,168.2 129.2,141.42 143.54,136.63 	"/>
	<rect x="134.93" y="153.85" class="st5" width="17.22" height="5.74"/>
	<path class="st6" d="M114.85,105.07v11.63c3.46,1.72,7.35,2.72,11.48,2.72s8.02-0.99,11.48-2.72v-11.63H114.85z"/>
	<path class="st2" d="M100.5,70.63v17.22c0,14.26,11.56,25.83,25.83,25.83s25.83-11.56,25.83-25.83V70.63H100.5z"/>
	<g>
		<path class="st7" d="M140.67,70.63v17.22c0,12.29-8.59,22.55-20.09,25.16c1.85,0.42,3.76,0.66,5.74,0.66
			c14.26,0,25.83-11.56,25.83-25.83V70.63H140.67z"/>
	</g>
	<path class="st0" d="M152.15,67.76V56.28c0-7.92-6.42-14.35-14.35-14.35h-22.96c-7.92,0-14.35,6.42-14.35,14.35v11.48v2.87v2.87
		h68.87v-5.74H152.15z"/>
	<rect x="123.46" y="79.24" class="st6" width="5.74" height="14.35"/>
	
		<rect x="86.15" y="70.63" transform="matrix(-1 -4.551216e-11 4.551216e-11 -1 186.6492 158.4838)" class="st8" width="14.35" height="17.22"/>
	<path class="st8" d="M98.91,113.2l-8.61-5.74c-0.8-0.53-1.28-1.43-1.28-2.39V87.85h5.74v15.68l7.33,4.89L98.91,113.2z"/>
	<path class="st0" d="M180.85,168.2h26.28c-4.43-10.13-14.52-17.22-26.28-17.22s-21.85,7.09-26.28,17.22H98.08
		c-4.43-10.13-14.52-17.22-26.28-17.22c-15.85,0-28.7,12.85-28.7,28.7c0,15.85,12.85,28.7,28.7,28.7c11.76,0,21.85-7.09,26.28-17.22
		h56.48c4.43,10.13,14.52,17.22,26.28,17.22c11.76,0,21.85-7.09,26.28-17.22h-26.28V168.2z M86.15,188.29L71.8,196.9l-14.59-7.65
		l0.24-18.17l14.35-8.61l14.35,8.61V188.29z"/>
	<g>
		<path class="st1" d="M140.67,56.28v11.48h11.48V56.28c0-7.92-6.42-14.35-14.35-14.35h-11.48
			C134.25,41.94,140.67,48.36,140.67,56.28z"/>
		<rect x="157.89" y="67.76" class="st1" width="11.48" height="5.74"/>
	</g>
	<path class="st1" d="M180.85,168.2h26.28c-4.43-10.13-14.52-17.22-26.28-17.22s-21.85,7.09-26.28,17.22h-13.89l-22.96,22.96h36.85
		c4.43,10.13,14.52,17.22,26.28,17.22c11.76,0,21.85-7.09,26.28-17.22h-26.28V168.2z"/>
	<rect x="97.63" y="176.81" class="st9" width="57.39" height="5.74"/>
	<rect x="89.02" y="87.85" class="st10" width="5.74" height="5.74"/>
	<path d="M71.8,211.25c11.89,0,22.72-6.7,28.1-17.22h52.85c5.37,10.52,16.2,17.22,28.1,17.22c12.53,0,23.88-7.43,28.91-18.94
		c0.39-0.89,0.3-1.91-0.23-2.72c-0.53-0.81-1.43-1.3-2.4-1.3h-23.41v-17.22h23.41c0.97,0,1.87-0.49,2.4-1.3
		c0.53-0.81,0.62-1.83,0.23-2.72c-5.03-11.5-16.38-18.94-28.91-18.94c-6.26,0-12.19,1.89-17.22,5.18v-5.18h-5.74v9.94
		c-2.02,2.15-3.76,4.58-5.14,7.27H129.2v-20.89l15.26-5.09c1.17-0.39,1.96-1.49,1.96-2.72v-8.61h14.35
		c7.91,0,14.35,6.44,14.35,14.35h5.74c0-11.08-9.01-20.09-20.09-20.09h-17.22h-2.87v-9.62c8.56-4.97,14.35-14.22,14.35-24.81V73.5
		h14.35v-5.74h-14.35V56.28c0-9.49-7.72-17.22-17.22-17.22h-22.96c-9.49,0-17.22,7.72-17.22,17.22v11.48H86.15
		c-1.58,0-2.87,1.28-2.87,2.87v17.22c0,1.58,1.28,2.87,2.87,2.87h2.87v14.35c0,0.96,0.48,1.86,1.28,2.39l8.61,5.74l3.18-4.78
		l-7.33-4.89V90.72h3.02c0.94,9.38,6.42,17.43,14.2,21.94v9.62h-2.87H91.89c-11.08,0-20.09,9.01-20.09,20.09h5.74
		c0-7.91,6.44-14.35,14.35-14.35h14.35v8.61c0,1.24,0.79,2.33,1.96,2.72l15.26,5.09v20.89H99.9c-1.38-2.7-3.12-5.13-5.14-7.27v-9.94
		h-5.74v5.18c-5.03-3.29-10.96-5.18-17.22-5.18c-17.41,0-31.57,14.16-31.57,31.57S54.4,211.25,71.8,211.25z M97.63,84.98h-8.61V73.5
		h8.61V84.98z M140.67,134.57l-7.32,2.44l5.99-8.98h1.33V134.57z M117.72,122.29v-7.06c2.72,0.86,5.61,1.32,8.61,1.32
		s5.89-0.47,8.61-1.32v7.06H117.72z M103.37,56.28c0-6.33,5.15-11.48,11.48-11.48h22.96c6.33,0,11.48,5.15,11.48,11.48v11.48h-45.91
		V56.28z M103.37,87.85V73.5h45.91v14.35c0,12.66-10.3,22.96-22.96,22.96S103.37,100.51,103.37,87.85z M111.98,134.57v-6.54h1.33
		l5.99,8.98L111.98,134.57z M120.21,128.03h12.23l-6.12,9.18L120.21,128.03z M71.8,153.85c10.25,0,19.54,6.08,23.65,15.5
		c0.46,1.04,1.49,1.72,2.63,1.72h56.48c1.14,0,2.17-0.68,2.63-1.72c4.12-9.41,13.4-15.5,23.65-15.5c8.71,0,16.71,4.39,21.45,11.48
		h-21.45c-1.58,0-2.87,1.28-2.87,2.87v22.96c0,1.58,1.28,2.87,2.87,2.87h21.45c-4.74,7.09-12.75,11.48-21.45,11.48
		c-10.25,0-19.54-6.08-23.65-15.5c-0.46-1.04-1.49-1.72-2.63-1.72H98.08c-1.14,0-2.17,0.68-2.63,1.72
		c-4.12,9.41-13.4,15.5-23.65,15.5c-14.24,0-25.83-11.59-25.83-25.83C45.98,165.44,57.56,153.85,71.8,153.85z"/>
	<path d="M55.88,191.79l14.59,7.65c0.42,0.22,0.88,0.33,1.33,0.33c0.51,0,1.02-0.14,1.48-0.41l14.35-8.61
		c0.86-0.52,1.39-1.45,1.39-2.46v-17.22c0-1.01-0.53-1.94-1.39-2.46L73.28,160c-0.91-0.55-2.04-0.55-2.95,0l-14.35,8.61
		c-0.85,0.51-1.38,1.43-1.39,2.42l-0.24,18.17C54.33,190.29,54.92,191.28,55.88,191.79z M60.3,172.71l11.5-6.9l11.48,6.89v13.97
		l-11.57,6.94l-11.6-6.09L60.3,172.71z"/>
	<rect x="97.63" y="176.81" width="57.39" height="5.74"/>
	<rect x="123.46" y="79.24" width="5.74" height="14.35"/>
	<rect x="134.93" y="153.85" width="17.22" height="5.74"/>
</g>
</svg>
