<svg xmlns="http://www.w3.org/2000/svg" width="201.58621200653388" height="239.517247580745" fill="none"><rect id="backgroundrect" width="100%" height="100%" x="0" y="0" fill="none" stroke="none" class="" style=""/>


<g class="currentLayer" style=""><title>Layer 1</title><path d="M17 22H7C6.59 22 6.25 21.66 6.25 21.25C6.25 20.84 6.59 20.5 7 20.5H17C17.41 20.5 17.75 20.84 17.75 21.25C17.75 21.66 17.41 22 17 22Z" fill="#292D32" id="svg_1"/><path d="M113.21070854000757,25.68108599025043 L88.89316741757105,46.05464474040303 C85.6710932188482,48.761621077835876 81.05076040558527,47.123188031494934 79.65250179104517,42.777778647721135 L68.16246361069392,6.874724067032659 C66.217060320899,0.6771729786995273 58.73941642574975,0.6771729786995273 56.79401313595483,6.874724067032659 L45.2433026905031,42.70654242831501 C43.845044075962996,47.123188031494934 39.28550511550615,48.761621077835876 36.06343091678331,45.98340852099689 L11.745889794346787,25.6098497708443 C6.882381569859483,21.620621484101143 0.43823317241380444,27.24828281718525 2.4444303150148166,33.873251221955144 L27.7346730823488,116.8637317749718 C28.585787021634083,119.71318055121694 30.89595342826555,121.56532225577624 33.44929524612139,121.56532225577624 H91.3857153826208 C93.93905720047663,121.56532225577624 96.2492236071081,119.6419443318108 97.10033754639336,116.8637317749718 L122.39058031372736,33.873251221955144 C124.45757130913447,27.24828281718525 118.01342291168879,21.620621484101143 113.21070854000757,25.68108599025043 zM77.64630464844416,91.43240144698414 H47.24949983310412 C44.75695186805437,91.43240144698414 42.68996087264727,89.01036998717579 42.68996087264727,86.08968499152455 C42.68996087264727,83.16899999587329 44.75695186805437,80.74696853606495 47.24949983310412,80.74696853606495 H77.64630464844416 C80.1388526134939,80.74696853606495 82.205843608901,83.16899999587329 82.205843608901,86.08968499152455 C82.205843608901,89.01036998717579 80.1388526134939,91.43240144698414 77.64630464844416,91.43240144698414 z" fill="#ebeb1a" id="svg_2" class="selected" fill-opacity="1"/></g></svg>