<?xml version="1.0" encoding="utf-8"?>
<!-- Generator: Adobe Illustrator 24.2.1, SVG Export Plug-In . SVG Version: 6.00 Build 0)  -->
<svg version="1.1" id="Layer_1" xmlns="http://www.w3.org/2000/svg" xmlns:xlink="http://www.w3.org/1999/xlink" x="0px" y="0px"
	 viewBox="0 0 200 200" style="enable-background:new 0 0 200 200;" xml:space="preserve">
<style type="text/css">
	.st0{fill:url(#SVGID_1_);}
	.st1{fill:#FFFFFF;}
</style>
<g>
	<linearGradient id="SVGID_1_" gradientUnits="userSpaceOnUse" x1="36.5186" y1="36.5182" x2="163.4814" y2="163.4809">
		<stop  offset="0" style="stop-color:#4272B8"/>
		<stop  offset="0.1503" style="stop-color:#406DB5"/>
		<stop  offset="0.3948" style="stop-color:#3D60AC"/>
		<stop  offset="0.7011" style="stop-color:#394A9D"/>
		<stop  offset="1" style="stop-color:#342F8F"/>
	</linearGradient>
	<path class="st0" d="M189.8,100c0-49.6-40.2-89.8-89.8-89.8S10.2,50.4,10.2,100c0,44.8,32.8,82,75.7,88.7V126H63.2v-26H86V80.2
		c0-22.5,13.4-34.9,33.9-34.9c9.8,0,20.1,1.8,20.1,1.8v22.1h-11.3c-11.2,0-14.6,6.9-14.6,14V100h24.9l-4,26H114v62.7
		C156.9,182,189.8,144.8,189.8,100z"/>
	<path class="st1" d="M134.9,126l4-26H114V83.2c0-7.1,3.5-14,14.6-14H140V47c0,0-10.3-1.8-20.1-1.8C99.4,45.3,86,57.7,86,80.2V100
		H63.2v26H86v62.7c4.6,0.7,9.3,1.1,14,1.1s9.5-0.4,14-1.1V126H134.9z"/>
</g>
</svg>
