<?xml version="1.0" encoding="utf-8"?>
<!-- Generator: Adobe Illustrator 24.2.1, SVG Export Plug-In . SVG Version: 6.00 Build 0)  -->
<svg version="1.1" id="Layer_1" xmlns="http://www.w3.org/2000/svg" xmlns:xlink="http://www.w3.org/1999/xlink" x="0px" y="0px"
	 viewBox="0 0 200 200" style="enable-background:new 0 0 200 200;" xml:space="preserve">
<style type="text/css">
	.st0{fill:url(#SVGID_1_);}
	.st1{fill:#FFFFFF;}
</style>
<g>
	<linearGradient id="SVGID_1_" gradientUnits="userSpaceOnUse" x1="163.9325" y1="36.0675" x2="36.0675" y2="163.9325">
		<stop  offset="1.104800e-03" style="stop-color:#FFE185"/>
		<stop  offset="0.2094" style="stop-color:#FFBB36"/>
		<stop  offset="0.3765" style="stop-color:#FF5176"/>
		<stop  offset="0.5238" style="stop-color:#F63395"/>
		<stop  offset="0.7394" style="stop-color:#A436D2"/>
		<stop  offset="1" style="stop-color:#5F4EED"/>
	</linearGradient>
	<circle class="st0" cx="100" cy="100" r="90.4"/>
	<g>
		<g>
			<path class="st1" d="M128.1,65.8c-3.4,0-6.2,2.8-6.2,6.2c0,3.4,2.8,6.2,6.2,6.2c3.4,0,6.2-2.8,6.2-6.2
				C134.3,68.6,131.5,65.8,128.1,65.8z"/>
			<path class="st1" d="M100.4,73.8c-14.4,0-26.1,11.7-26.1,26.1c0,14.4,11.7,26.1,26.1,26.1c14.4,0,26.1-11.7,26.1-26.1
				C126.5,85.5,114.8,73.8,100.4,73.8z M100.4,116.6c-9.2,0-16.7-7.5-16.7-16.7s7.5-16.7,16.7-16.7c9.2,0,16.7,7.5,16.7,16.7
				S109.7,116.6,100.4,116.6z"/>
			<path class="st1" d="M121.2,152.9H78.8C61.3,152.9,47,138.6,47,121V78.7c0-17.6,14.3-31.8,31.8-31.8h42.3
				c17.6,0,31.8,14.3,31.8,31.8V121C153,138.6,138.7,152.9,121.2,152.9z M78.8,56.8C66.8,56.8,57,66.7,57,78.7V121
				c0,12.1,9.8,21.9,21.9,21.9h42.3c12.1,0,21.9-9.8,21.9-21.9V78.7c0-12.1-9.8-21.9-21.9-21.9H78.8z"/>
		</g>
	</g>
</g>
</svg>
