<?xml version="1.0" encoding="utf-8"?>
<!-- Generator: Adobe Illustrator 24.2.1, SVG Export Plug-In . SVG Version: 6.00 Build 0)  -->
<svg version="1.1" id="Layer_1" xmlns="http://www.w3.org/2000/svg" xmlns:xlink="http://www.w3.org/1999/xlink" x="0px" y="0px"
	 viewBox="0 0 200 200" style="enable-background:new 0 0 200 200;" xml:space="preserve">
<style type="text/css">
	.st0{fill:url(#SVGID_1_);}
	.st1{fill:#FFFFFF;}
	.st2{fill-rule:evenodd;clip-rule:evenodd;fill:#FFFFFF;}
</style>
<linearGradient id="SVGID_1_" gradientUnits="userSpaceOnUse" x1="166.0602" y1="35.2721" x2="39.0972" y2="162.2351">
	<stop  offset="0" style="stop-color:#6FC05E"/>
	<stop  offset="1" style="stop-color:#0BB25B"/>
</linearGradient>
<circle class="st0" cx="102.6" cy="98.8" r="89.8"/>
<path class="st1" d="M50.5,151L58,123c-4.2-7.6-6.5-16.2-6.5-24.9c0-28.4,23.1-51.6,51.6-51.6c28.4,0,51.6,23.1,51.6,51.6
	c0,28.4-23.1,51.6-51.6,51.6c-8.5,0-17-2.2-24.5-6.2L50.5,151z M80,133l1.8,1.1c6.5,3.9,13.9,5.9,21.3,5.9
	c23.1,0,41.8-18.8,41.8-41.8s-18.8-41.8-41.8-41.8c-23.1,0-41.8,18.8-41.8,41.8c0,7.6,2.1,15.1,6.1,21.7l1.1,1.8l-4.2,15.6L80,133z"
	/>
<path class="st2" d="M121.7,106.2c-2.1-1.3-4.9-2.7-7.4-1.7c-1.9,0.8-3.1,3.8-4.4,5.3c-0.6,0.8-1.4,0.9-2.4,0.5
	c-7.2-2.9-12.7-7.7-16.7-14.3c-0.7-1-0.6-1.8,0.3-2.8c1.2-1.4,2.7-3,3-4.9c0.3-1.9-0.6-4.1-1.4-5.8c-1-2.2-2.1-5.3-4.3-6.5
	c-2-1.1-4.6-0.5-6.4,1c-3.1,2.5-4.5,6.4-4.5,10.3c0,1.1,0.1,2.2,0.4,3.3c0.6,2.6,1.8,5,3.1,7.2c1,1.7,2.1,3.4,3.3,5
	c3.9,5.2,8.6,9.8,14.2,13.2c2.8,1.7,5.8,3.2,8.9,4.2c3.5,1.1,6.6,2.3,10.3,1.6c3.9-0.7,7.8-3.2,9.3-6.9c0.5-1.1,0.7-2.4,0.4-3.5
	C127,108.9,123.7,107.4,121.7,106.2z"/>
</svg>
