<?xml version="1.0" encoding="utf-8"?>
<!-- Generator: Adobe Illustrator 24.2.1, SVG Export Plug-In . SVG Version: 6.00 Build 0)  -->
<svg version="1.1" id="Layer_1" xmlns="http://www.w3.org/2000/svg" xmlns:xlink="http://www.w3.org/1999/xlink" x="0px" y="0px"
	 viewBox="0 0 200 200" style="enable-background:new 0 0 200 200;" xml:space="preserve">
<style type="text/css">
	.st0{fill:url(#SVGID_1_);}
	.st1{fill:#FFFFFF;}
</style>
<linearGradient id="SVGID_1_" gradientUnits="userSpaceOnUse" x1="162.9539" y1="36.4045" x2="35.9907" y2="163.3677">
	<stop  offset="0" style="stop-color:#ED2224"/>
	<stop  offset="1" style="stop-color:#9B1B1F"/>
</linearGradient>
<circle class="st0" cx="99.5" cy="99.9" r="89.8"/>
<path class="st1" d="M148.6,87.1c0-11.9-9.7-21.6-21.6-21.6H71.9c-11.9,0-21.6,9.7-21.6,21.6v25.7c0,11.9,9.7,21.6,21.6,21.6H127
	c11.9,0,21.6-9.7,21.6-21.6V87.1z M116.2,101.8L91.5,114c-1,0.5-4.3-0.2-4.3-1.3V87.7c0-1.1,3.3-1.8,4.3-1.3l23.7,12.9
	C116.1,99.8,117.2,101.3,116.2,101.8z"/>
</svg>
