<?xml version="1.0" encoding="utf-8"?>
<!-- Generator: Adobe Illustrator 24.2.1, SVG Export Plug-In . SVG Version: 6.00 Build 0)  -->
<svg version="1.1" id="Layer_1" xmlns="http://www.w3.org/2000/svg" xmlns:xlink="http://www.w3.org/1999/xlink" x="0px" y="0px"
	 viewBox="0 0 250 250" style="enable-background:new 0 0 250 250;" xml:space="preserve">
<style type="text/css">
	.st0{fill:#333333;}
	.st1{fill:#FDC917;}
</style>
<path d="M10.9,132.8"/>
<path class="st0" d="M88.9,149.4c0.6,1.4,1.9,2.5,3.5,2.9c0.4,0.1,1,0.1,1.4,0.1c0.9,0,1.7-0.1,2.6-0.6l5.6-2.5l-1.4,6.4
	c-0.3,1.4,0.4,2.9,1.9,3.3l5.5,2.2l-1.6,7.7c-0.3,1.3,0.4,2.6,1.6,3.2l6.5,3.2l-0.1,12.3c0,1.2,0.7,2.3,1.7,2.7l19.4,8.4h0.1
	c0.3,0.1,0.7,0.3,1,0.3c0.4,0,0.9-0.1,1.2-0.3c0.4-0.1,0.7-0.4,1-0.7l0.1-0.1c0.1-0.3,0.4-0.4,0.4-0.7l0,0l6.9-20
	c0.3-0.7,0.3-1.4-0.1-2.2L130,137.1l4.9-2.2c1.3-0.6,2.5-1.6,3-2.7c0.7-1.4,0.9-3,0.3-4.5l-15.5-35.5c-1.2-2.6-4.5-3.8-7.5-2.5
	l-17.9,7.8c-3-8.5-2.9-17.8,0.4-26.2c3.8-9.4,10.9-16.8,20.1-20.8c16.1-6.9,34.4-2.2,45,11.3l-14.3,6.2c-1.4,0.6-2.6,1.7-3.2,3.3
	c-0.6,1.4-0.6,3,0.1,4.5l20.3,46.5c0.6,1.4,1.7,2.6,3.3,3.2c0.7,0.3,1.4,0.4,2.2,0.4c0.9,0,1.6-0.1,2.3-0.4l24.7-10.9l0,0l0,0
	l8.1-3.6c3-1.3,4.3-4.8,3-7.8l0,0l-20.3-46.5c-0.6-1.4-1.7-2.6-3.3-3.2c-1.4-0.6-3-0.6-4.5,0.1l-8.1,3.6l0,0l0,0l-4.9,2.2
	c-12-16.5-33.9-22.6-52.8-14.3c-10.7,4.6-19,13.3-23.3,24.2c-3.9,10-4.1,20.8-0.4,30.8l-15.1,6.5c-1.3,0.6-2.5,1.6-3,2.7
	c-0.7,1.4-0.9,3-0.3,4.5L88.9,149.4z M155.7,84.6l8.7-3.8l10.6,24.2l-8.7,3.8L155.7,84.6z M171.1,119.9l-2.5-5.6l11.3-4.9
	c0.7-0.3,1.3-0.9,1.6-1.6c0.3-0.7,0.3-1.6,0-2.3l-13-29.7c-0.7-1.4-2.5-2.2-3.9-1.6l-11.3,4.9l-2.5-5.6l22-9.6l20.3,46.5
	L171.1,119.9z M183.7,59.1l20.3,46.5l2.7-1.2l-8.1,3.6l-20.3-46.5L183.7,59.1z M124.7,139.6l16.1,36.9l-4.2,11.9l-13.7-31.5
	c-0.7-1.4-2.5-2.2-3.9-1.6c-1.4,0.7-2.2,2.5-1.6,3.9l13.7,31.5l-10.7-4.6l0.1-12.3c0-1.2-0.6-2.2-1.6-2.7l-6.2-3l1.6-8
	c0.3-1.4-0.4-2.7-1.9-3.3l-5.5-2.2l1.7-8.1l8-3.5L124.7,139.6z M117.6,95.3l14.9,34.3l-38.3,16.8l-15.1-34.3L117.6,95.3z"/>
<polygon class="st1" points="155.7,83.9 164.3,80 174.9,105.3 166.2,109.2 "/>
<path class="st1" d="M100.4,126.4c1.2,0.4,2.5,0.7,3.8,0.7c1.4,0,2.7-0.3,4.1-0.9c5.2-2.3,7.5-8.4,5.4-13.5
	c-2.3-5.2-8.4-7.5-13.5-5.4c-2.5,1.2-4.5,3-5.5,5.6c-1,2.6-1,5.4,0.1,7.8C95.8,123.5,97.8,125.4,100.4,126.4z M100.1,115.2
	c0.4-1,1.3-1.9,2.3-2.5c0.6-0.3,1.2-0.4,1.7-0.4c1.7,0,3.3,1,4.1,2.6c1,2.2,0,4.8-2.2,5.8c-1,0.4-2.3,0.4-3.3,0
	c-1-0.4-1.9-1.3-2.5-2.3C99.7,117.6,99.7,116.3,100.1,115.2z"/>
</svg>
