<?xml version="1.0" encoding="utf-8"?>
<!-- Generator: Adobe Illustrator 24.2.1, SVG Export Plug-In . SVG Version: 6.00 Build 0)  -->
<svg version="1.1" id="Layer_1" xmlns="http://www.w3.org/2000/svg" xmlns:xlink="http://www.w3.org/1999/xlink" x="0px" y="0px"
	 viewBox="0 0 250 250" style="enable-background:new 0 0 250 250;" xml:space="preserve">
<style type="text/css">
	.st0{fill:#333333;}
	.st1{fill:#FDC917;}
</style>
<path class="st0" d="M206.8,161.4c-4.7,0-9.4,0-14,0c-0.3,0-0.5,0.1-0.8-0.1c2.1-2.4,3.5-5.2,4.2-8.3c0.1-0.5,0.4-0.5,0.8-0.5
	c1.9,0,3.8,0,5.7,0c3.7,0,6.7-2.9,7.1-6.4c0.4-3.7-2.1-7.1-5.7-7.8c-0.8-0.1-0.9-0.5-0.9-1.1c0-3.3,0-6.6,0-9.9c0.1-0.4,0.1-0.8,0-1
	c0-0.1,0-0.4,0-0.5c0-0.1,0-0.3,0-0.4c0-0.6,0-1.4,0-2c0.1-0.4,0.1-0.8,0-1.1c-0.1,0-0.3,0-0.5,0c0,0.4,0,0.8,0,1l0,0
	c0,0.4-0.3,0.8-0.4,1.1c0.1-0.4,0.4-0.8,0.4-1.1c0-0.4,0-0.8,0-1c0.1,0,0.3,0,0.5,0c0-0.9,0.1-1.6,0-2.5c0-1.3-0.6-2.1-1.8-2.5
	c-5.3-1.5-10.6-2.9-15.9-4.3c-0.9-0.3-1.8-0.5-2.7-0.8c-0.6-1.1-1.1-2.1-1.8-3.3c-2.3-4.2-4.6-8.3-6.8-12.4c-1.5-2.8-3-5.7-4.6-8.5
	c-0.6-1-1.6-1.4-2.8-1.1c-0.9,0-1.9,0-2.8,0c-0.1,0-0.3,0-0.4,0c0-0.6,0-1.4-0.1-2c-0.1-3.3-2.7-5.9-6.1-6.3c-0.4-0.1-0.8-0.1-1.1,0
	c-0.3,0-0.5,0-0.8,0.1c-2,0.3-3.4,1.3-4.6,3c-0.3,0.1-0.4,0.5-0.4,0.8c-0.1,0.3-0.4,0.5-0.3,0.8c-0.3,0.5-0.4,1.1-0.4,1.6
	c-0.3,0.6,0.1,1.4-0.3,2c-0.3,0-0.5,0-0.8,0c-0.4,0-0.9,0-1.3,0c-1-0.1-2-0.1-2.8,0.6c-1,0.8-1,1.8-0.9,2.9c0,0.1,0,0.3,0,0.4
	c0,3.8,0,7.5,0,11.3c0,5.2,0,10.2,0,15.4c0,0.1,0,0.4,0,0.5c0,0.4,0,0.8,0,1.1c0,0.4,0,0.8,0,1.1c0,0.4,0,0.8,0,1.1
	c0.1,0,0.4,0,0.5,0c-0.1,0-0.4,0-0.5,0c0,1,0,2.1,0,3.2c0,0.5-0.1,0.6-0.6,0.6c-0.8,0-1.5,0-2.3,0c-2-0.1-4-0.1-5.9,0
	c-1.5,0-2.9,0-4.4,0c-1.1,0-1.1,0-0.9-1.1c0.1-0.4,0.3-0.9,0.3-1.3c0-0.6,0.3-0.8,0.8-0.6c1.9,0,3.7,0,5.6,0c1.1,0,2.3,0,2.9-1
	c0.9-1.6,2.5-3.2,2.3-5.3c0,0,0,0,0-0.1c-0.4-2-0.9-4.2-1.1-6.2c-0.3-2.1-1.3-3.3-3.2-4.2c-9.1-4.3-18.5-5.4-28.2-3.4
	c-0.6,0.1-0.9,0-1.3-0.5c-0.9-1.3-1.9-2.5-2.8-3.8c-0.6-0.9-1.3-1.6-1.8-2.5c-0.5-0.8-1-1.5-1.6-2.3c-2.5-3.4-1.9-3.2-6.2-3.2
	c-5.3,0-10.6-0.1-15.9,0.8c-1,0.1-2,0.3-3,0.5c-0.6,0-1.1,0.1-1.6,0.4c-0.4,0-0.8,0-1.1,0.3c-0.9,0.3-1.9,0.4-2.8,0.6
	c-7.6,1.9-14.7,5.2-21.5,9.1c-1,0.5-1.4,1.4-1.4,2.5c0,2.4,0,4.8,0,7.3c0,0.6-0.1,0.9-0.8,1.1c-1,0.4-1.5,1.3-1.5,2.4
	c0,1.1,0.5,2,1.5,2.4c0.8,0.3,0.9,0.6,0.8,1.3c0,0.3,0,0.5,0,0.9c0,1.9,1,2.9,2.9,2.9c2,0,3.9,0,5.9,0c0.3,0,0.6-0.1,0.6,0.4
	c0,0.9,0.4,1.6,0.6,2.7c-0.4,0-0.8,0-1,0c-4.2,0-8.3,0-12.5,0c-1.9,0-2.9,1-2.9,2.9c0,5.2,0,10.4,0,15.5c0,4.6,3.7,8.7,8.2,9.1
	c2.8,0.3,5.6,0.1,8.3,0.1c0.5,0,0.8,0.1,0.9,0.6c0.5,2.9,1.8,5.4,3.8,7.7c0.1,0.1,0.4,0.3,0.4,0.6c-0.4,0-0.6,0-1,0
	c-5.9,0-11.9,0-17.7,0c-1.8,0-2.9,1.3-2.7,2.9c0.1,1.4,1.3,2.3,2.8,2.3c7.2,0,14.5,0,21.7,0c46.8,0,93.7,0,140.4,0
	c1.8,0,2.9-1,2.9-2.7C209.8,162.4,208.7,161.4,206.8,161.4z M204.5,145.2c0,1-0.8,1.9-1.8,1.9c-2,0-3.9,0-5.9,0
	c-0.3,0-0.5,0-0.5-0.4c-0.3-1.1-0.5-2.3-1-3.4c2.5,0,5.1,0,7.5,0C203.8,143.3,204.5,144.2,204.5,145.2z M200.6,125.6
	c-0.5,0.3-1,0.6-1.5,0.9C199.6,126.3,200.1,125.9,200.6,125.6L200.6,125.6z M172.7,125.8L172.7,125.8c0.3-0.3,0.6-0.5,0.9-0.8
	c0.1-0.4-0.1-0.6-0.3-0.9c0.3,0.3,0.4,0.5,0.3,0.9C173.3,125.3,172.9,125.5,172.7,125.8z M170.1,124.4c-0.4,0.1-0.8,0.3-0.9,0.8l0,0
	C169.4,124.6,169.8,124.5,170.1,124.4z M177.9,122.7c0.4,0,0.6,0,1,0C178.5,122.7,178.1,122.7,177.9,122.7z M203,125.3
	c-0.4,0-0.6-0.3-0.9-0.5c-0.5-0.1-0.8,0.1-1,0.4c0.3-0.3,0.5-0.5,1-0.4C202.4,125,202.6,125.3,203,125.3z M183.7,115
	c0.1-0.1,0.3-0.3,0.4-0.4C183.9,114.8,183.8,114.9,183.7,115c0,0.3-0.1,0.4-0.3,0.6c-0.1,0.1-0.3,0.4-0.4,0.5
	c0.1-0.1,0.3-0.3,0.4-0.5C183.5,115.4,183.7,115.2,183.7,115c-0.3,0-0.6-0.1-0.9-0.3C183,114.9,183.4,115,183.7,115z M181.6,112.5
	c-0.1,0-0.1,0-0.1-0.1l0,0C181.5,112.4,181.5,112.4,181.6,112.5c0.1,0,0.3,0,0.4,0.1C181.9,112.5,181.8,112.5,181.6,112.5z
	 M181.8,111.4c0-0.3,0-0.4-0.1-0.6C181.8,111,181.8,111.2,181.8,111.4z M168.8,93.5c0,0.5,0,1,0,1.5l0,0
	C168.8,94.5,168.8,94,168.8,93.5z M157,83.4c1,0,1.5,0.8,1.6,2.1c0.1,1.5-1,0.8-1.6,1c-0.6-0.3-1.6,0.5-1.6-1
	C155.6,84.3,156,83.6,157,83.4z M154.8,79.6c-0.1,0-0.3,0.1-0.4,0.1c0,0.3-0.1,0.4-0.3,0.6c-0.1,0.1-0.3,0.3-0.5,0.4
	c0.3-0.1,0.4-0.3,0.5-0.4c0.1-0.1,0.1-0.4,0.3-0.6C154.7,79.8,154.7,79.6,154.8,79.6z M153.2,81.5c-0.1,0.1-0.3,0.1-0.4,0.3
	c0,0.1,0,0.3-0.1,0.3c0-0.1,0.1-0.1,0.1-0.3C153,81.7,153.1,81.7,153.2,81.5z M150.2,98.5c2,0,4.2,0.1,6.2,0
	c1.9-0.1,3.4,0.3,3.9,2.3c0,0.1,0.1,0.1,0.1,0.3c0.4,0.9,0.8,1.6,1.3,2.5c1.4,2.7,2.7,5.3,4,8.1c-0.4,0-0.6,0-0.9,0.1
	c-4.7,0-9.5,0-14.2,0c-0.4,0-0.9,0-1.3-0.1c0-4.2,0-8.5,0-12.6C149.5,98.5,149.9,98.6,150.2,98.5z M146,118.9c0.1,0,0.1,0,0.3,0
	C146.1,118.9,146.1,118.9,146,118.9c-0.4,0-0.5-0.1-0.6-0.4C145.5,118.7,145.6,118.9,146,118.9z M145.6,116.9L145.6,116.9
	c0.5-1,1.1-2,1.6-3C146.6,114.9,146.1,115.9,145.6,116.9z M53.6,116.4c0-1,0-2-0.1-2.9c0-2.7,0-5.2,0-7.8c0-0.5,0-0.8,0.5-1
	c7.5-4.2,15.4-7.2,23.9-8.8c5.7-1,11.4-1.1,17.2-1.1c1.3,0,2.1,0.4,2.8,1.4c0.8,1.1,1.6,2.3,2.5,3.4c0.1,0.3,0.4,0.6,0.6,0.8
	c1.4,2,2.9,3.9,4.3,5.9c0.8,1,1.8,1.3,2.8,0.9c5.1-1.4,10.1-1.6,15.3-1c0.5,0.1,1,0.1,1.5,0.3c3.4,0.6,6.6,1.6,9.7,3
	c0.5,0.3,0.8,0.6,0.9,1.1c0.3,1.5,0.5,3,0.8,4.4c0.1,0.9-0.3,1.4-1.1,1.4c-1.9,0-3.7,0-5.6,0c-0.5,0-0.9-0.1-1.1-0.5
	c-1.6-2-3.8-3.2-6.6-3.2c-0.4-0.1-0.8-0.1-1.1,0c-0.1,0-0.3,0-0.4,0c-1.1,0.1-2.1,0.4-3,1c-0.5,0.3-0.9,0.5-1.3,0.9
	c-0.6,0.4-1.1,1-1.5,1.6c-9.4,0-18.6,0-27.9,0c-0.4,0-0.8,0-1.1,0c-1,0-2,0-3,0c0,0.3,0.1,0.4,0.1,0.5c-0.1-0.1-0.1-0.4-0.1-0.5
	c-0.1,0-0.3,0-0.4,0c-0.1,0-0.3,0-0.4,0c-0.1,0-0.3,0-0.4,0c-0.3,0-0.5,0-0.8,0c-2,0-4.2,0-6.2,0c-0.5,0-0.9-0.1-1.3-0.5
	c-3.5-4.3-10-4.3-13.5,0c-0.3,0.4-0.6,0.5-1.1,0.5C56.9,116.4,55.2,116.4,53.6,116.4z M107.1,126.3c-0.3-0.4-0.4-0.8-0.4-1.1
	c-0.1,0-0.1-0.1-0.1-0.1l0.1,0.1C106.7,125.6,106.9,125.9,107.1,126.3z M107.6,124.8c-0.4-0.1-0.6-0.1-1,0c-5.6,0-11.3,0-16.8,0
	c-3.9,0-7.7,0-11.6,0c-0.4,0-0.6,0-1,0.1c-0.9-0.1-1.6-0.1-2.5,0c-0.3-0.8,0.4-1.3,0.4-1.9c-0.1-1.1,0.5-1.3,1.4-1.3
	c11.9,0,23.8,0,35.8,0c0.6,0,0.9,0.1,1,0.8c0,0.8,0.3,1.4,0.5,2.3c-1.8,0-3.5,0-5.3,0C108,124.8,107.7,124.8,107.6,124.8z
	 M121.6,117.9c1.9,0,3.4,1.5,3.4,3.4c0,1.9-1.5,3.4-3.4,3.4c-1.9,0-3.4-1.5-3.4-3.4C118.3,119.4,119.8,117.9,121.6,117.9z
	 M66.4,124.8c-1.9,0-3.4-1.5-3.4-3.4c0-1.9,1.5-3.4,3.4-3.4c1.9,0,3.4,1.6,3.4,3.5C69.8,123.2,68.1,124.8,66.4,124.8z M59.2,146.6
	c-0.1,0.5-0.3,0.6-0.8,0.6c-1.1,0-2.4,0-3.5,0c-0.8-0.1-1.4-0.1-2.1,0c-0.4-0.1-0.8-0.1-1.1,0c-0.3,0-0.6,0-0.9,0
	c-2.5-0.6-3.7-2.1-3.7-4.7c0-3.8,0-7.7,0-11.5c0-0.8,0.1-0.9,0.9-0.9c6.2,0,12.5,0,18.7,0c0.4,0,0.6,0,1,0v-0.1v0.1
	c0.1,0.1,0.3,0.1,0.4,0c0.1,0,0.4,0,0.5,0c0.1,0.1,0.3,0.1,0.4,0c1.4,0,2.8,0,4.2,0c20.6,0,41.3,0,61.9,0c0.1,0,0.1,0,0.3,0
	c0.4,0.1,0.6,0.1,1,0c2.3,0,4.6,0,6.8,0c0.8,0,1,0.1,1,1c0,5.1,0,10.1,0,15.2c0,0.8-0.1,1-1,1c-8.5,0-16.8,0-25.3,0
	c-0.4,0-0.6,0-1,0c0,0.1,0,0.3-0.1,0.3c0,0,0.1-0.1,0.1-0.3c-0.3-0.1-0.4-0.1-0.6,0c-7.6,0-15,0-22.6,0c-1,0-1.5-0.1-1.6-1.3
	c-0.1-0.9-0.4-1.8-0.9-2.5c-0.4-1-0.9-2-1.5-2.8c-2.8-4.2-6.7-6.7-11.6-7.5C68.9,132,61.2,137.4,59.2,146.6z M75.7,161.4
	c-6.4,0-11.6-5.2-11.6-11.6c0-6.4,5.2-11.6,11.6-11.6c6.4,0,11.6,5.3,11.6,11.6C87.3,156.2,82,161.4,75.7,161.4z M166.5,161.5
	c-0.6,0-1.4,0-2,0c-0.3,0-0.5,0-0.8,0c-20.5,0-41,0-61.4,0c-0.1,0-0.3,0-0.4,0c-0.8,0-1.6,0-2.4,0c-3.8,0-7.5,0-11.3,0
	c-0.1-0.4,0.3-0.5,0.4-0.6c1.9-2.1,3.2-4.7,3.7-7.6c0.1-0.6,0.4-0.9,1-0.9c6.2,0,12.3,0,18.5,0c0.5,0,1,0,1.5,0
	c0.3,0.1,0.5,0.1,0.8,0c3,0,6.2,0,9.2,0c7.5,0,14.8,0,22.2,0c0.1,0,0.3,0,0.5,0c0.3,0.1,0.5,0.1,0.8,0c3.2,0,6.3,0,9.4,0
	c2,0,4,0,6.2,0c0.6,0,0.8,0.1,0.9,0.8c0.5,2.4,1.4,4.7,3,6.6c0.3,0.6,1,1,1.1,1.6C167,161.5,166.7,161.5,166.5,161.5z M181.1,161.3
	c-3.8,0.5-7-0.8-9.6-3.2c-0.4-0.5-0.9-1-1.3-1.5c-2.3-3.4-2.8-7-1.4-10.9c1.9-5.3,7.6-8.5,13-7.5c5.7,1.1,9.7,6.2,9.5,11.9
	S186.7,160.7,181.1,161.3z M174.6,133.7c-6.2,2-10.1,6.3-11.5,12.8c-0.1,0.5-0.4,0.6-0.9,0.6c-4,0-8,0-12,0c-0.6,0-0.8-0.1-0.8-0.8
	c0-9.6,0-19.2,0-28.7c0-0.8,0.4-0.8,0.9-0.8c6.6,0,13,0,19.6,0c1.9,0,3-1.1,2.9-2.9c0-0.3-0.1-0.5-0.1-0.8c-1.3-2.4-2.5-4.8-3.8-7.2
	c0-0.3-0.1-0.4-0.3-0.6c-0.4-0.9-0.8-1.8-1.4-2.7c-0.1-0.1-0.1-0.4-0.3-0.5c-0.4-0.9-0.9-1.8-1.3-2.7c-0.3-0.6-0.5-1.1-0.9-1.6
	c-0.1-0.5-0.4-0.9-0.6-1.4c0-0.1-0.1-0.3-0.1-0.4c-0.3-0.6-0.5-1.1-0.9-1.8c-0.5-0.8-1.1-1.3-2.1-1.3c-3.8,0-7.5,0-11.3,0
	c-0.1-0.1-0.1-0.3-0.3-0.4c0-0.4,0-0.8,0-1.1c0.3,0,0.6,0,0.9-0.1c4.9,0,10,0,14.9,0c0.1,0,0.4,0,0.5,0c0,0,0.1,0.1,0.1,0
	c0.5,1,1,2,1.6,2.9c0.4,0.8,0.8,1.5,1.3,2.3c0.6,1.3,1.3,2.5,2,3.8c0,0.1,0,0.3,0.3,0.4c0.4,1,0.9,1.9,1.5,2.8
	c0,0.1,0.1,0.1,0.1,0.3c0.8,1.6,1.6,3.3,2.7,4.8c0.1,0.4,0.4,0.6,0.5,1c1,1.9,1.9,3.8,3,5.6c0.5,1.3,1.8,1.4,2.8,1.6
	c1.8,0.5,3.7,1,5.4,1.5c0.1,0,0.3,0.1,0.5,0.1c3.2,0.9,6.2,1.8,9.4,2.7c0.4,0.1,1,0,0.9,0.5c-0.1,0.5-0.6,0.3-1,0.3
	c-5.3,0-10.7,0-16.1,0c-1.8,0-3.5,0-5.3,0c-0.3-0.1-0.5-0.1-0.8,0c-0.4,0-0.8,0-1.1,0c-0.4-0.1-0.6-0.1-1,0c-0.4,0-0.6,0-1,0
	c-0.4-0.1-0.8-0.1-1.1,0c-3.5,0-7.1,0-10.6,0c-1.6,0-2.7,1.1-2.7,2.7s1.1,2.5,2.8,2.7c2.8,0,5.7,0,8.5,0c0.6,0,1.3,0,1.9,0
	c0.1,0,0.4,0,0.5,0c0.3,0,0.4,0,0.6,0c8.6,0,17.3,0,25.9,0c0.8,0.1,0.3,0.8,0.5,1c0,0.1,0,0.4,0,0.5c-0.1,0.9-0.1,1.8,0,2.7
	c0,1.9,0,3.8,0,5.6c0,0.6-0.1,0.9-0.8,0.9c-1.5,0-3.2,0-4.7,0c-0.5,0-0.8-0.1-1.1-0.5C186.4,133.2,180.9,131.7,174.6,133.7z"/>
<path class="st1" d="M177.2,142.2c-4.3,1.4-6.7,6.2-5.1,10.4c0.1,0.6,0.4,1.1,0.8,1.5c0,0.1,0.1,0.3,0.1,0.4
	c2.3,3.2,6.3,4.3,9.9,2.7c3.5-1.6,5.3-5.6,4.4-9.4C186.2,143.3,181.5,140.8,177.2,142.2z M179.5,152.6c-0.5,0-1-0.4-1.5-0.4
	c-0.1,0.1-0.1,0.3-0.3,0.4c0.1-0.1,0.1-0.3,0.3-0.4l0,0l0,0v-0.1c-1-0.9-1.3-2-0.6-3.3c0.6-1.3,1.8-1.6,3-1.5
	c0.6,0.3,1.3,0.6,1.6,1.1C182.9,150.5,181.6,152.7,179.5,152.6z"/>
<path class="st1" d="M83.7,149.8c0.1-0.8,0-1.4-0.3-2c-1.1-4.2-5.4-6.7-9.7-5.6c-4.3,1.1-6.8,5.6-5.6,9.9c1,3.7,4.3,5.9,8.1,5.8
	c3.4-0.1,6.6-2.8,7.3-5.9c0.3-0.5,0.3-1.1,0.3-1.6C83.7,150,83.7,149.9,83.7,149.8z M73.1,149.4c0.3-1.4,1.5-2.4,2.9-2.3
	c1.4,0.1,2.4,1.3,2.4,2.7c0,0.1,0,0.4,0,0.5c-0.1,0.3-0.1,0.4-0.3,0.6c-1,1.3-2,1.8-3.2,1.4C73.7,152.1,72.8,150.7,73.1,149.4z"/>
</svg>
