<?xml version="1.0" encoding="utf-8"?>
<!-- Generator: Adobe Illustrator 24.2.1, SVG Export Plug-In . SVG Version: 6.00 Build 0)  -->
<svg version="1.1" id="Layer_1" xmlns="http://www.w3.org/2000/svg" xmlns:xlink="http://www.w3.org/1999/xlink" x="0px" y="0px"
	 viewBox="0 0 250 250" style="enable-background:new 0 0 250 250;" xml:space="preserve">
<style type="text/css">
	.st0{fill:#333333;}
	.st1{fill:#FDC917;}
</style>
<path class="st0" d="M191.4,74.6h-17.2V64.3c0-1.9-1.5-3.5-3.5-3.5H150c-1.9,0-3.5,1.5-3.5,3.5v10.3h-41.4V64.3
	c0-1.9-1.5-3.5-3.5-3.5H81.2c-1.9,0-3.5,1.5-3.5,3.5v10.3H60.5c-1.9,0-3.5,1.5-3.5,3.5v103.3c0,1.9,1.5,3.5,3.5,3.5h131.1
	c1.9,0,3.5-1.5,3.5-3.5V77.9C194.9,76.1,193.3,74.6,191.4,74.6z M153.5,67.7h13.7v6.9h-13.7V67.7z M84.6,67.7h13.7v6.9H84.6V67.7z
	 M188.1,81.4v13.7H63.9V81.4H188.1z M63.9,177.9v-75.8h124.1v75.8H63.9z"/>
<rect x="63.9" y="81.4" class="st1" width="124.1" height="13.7"/>
<path class="st0" d="M101.8,126.3h-6.9v-6.9c0-1.9-1.5-3.5-3.5-3.5s-3.5,1.5-3.5,3.5v6.9H81c-1.9,0-3.5,1.5-3.5,3.5
	c0,1.9,1.5,3.5,3.5,3.5H88v6.9c0,1.9,1.5,3.5,3.5,3.5s3.5-1.5,3.5-3.5v-6.9h6.9c1.9,0,3.5-1.5,3.5-3.5
	C105.3,127.8,103.8,126.3,101.8,126.3z"/>
<path class="st0" d="M170.8,126.3h-13.7c-1.9,0-3.5,1.5-3.5,3.5c0,1.9,1.5,3.5,3.5,3.5h13.7c1.9,0,3.5-1.5,3.5-3.5
	C174.2,127.8,172.6,126.3,170.8,126.3z"/>
</svg>
