<?xml version="1.0" encoding="utf-8"?>
<!-- Generator: Adobe Illustrator 24.2.1, SVG Export Plug-In . SVG Version: 6.00 Build 0)  -->
<svg version="1.1" id="Layer_1" xmlns="http://www.w3.org/2000/svg" xmlns:xlink="http://www.w3.org/1999/xlink" x="0px" y="0px"
	 viewBox="0 0 250 250" style="enable-background:new 0 0 250 250;" xml:space="preserve">
<style type="text/css">
	.st0{fill:#FDC917;}
	.st1{fill:#333333;}
</style>
<path d="M239,128.3"/>
<path class="st0" d="M106.9,88.7c0,0,1.8,1.2,4.4,1.2c6.8,0,11.1-7.6,7.3-13.3l-5.5-8.6c-0.4-0.6-1.1-1-1.8-1s-1.4,0.4-1.8,1
	l-5.5,8.6C101.3,80.8,102.7,86.2,106.9,88.7L106.9,88.7z M107.7,78.8l3.6-5.7l3.7,5.7c2.6,4-2.3,8.7-6.4,5.8
	C107,83.4,106.4,80.9,107.7,78.8L107.7,78.8z"/>
<path class="st0" d="M88.2,113c-3.6,0-6.5,2.9-6.5,6.5v4.4c0,3.6,2.9,6.5,6.5,6.5h21.6c3.6,0,6.5-2.9,6.5-6.5v-4.4
	c0-3.6-2.9-6.5-6.5-6.5H88.2z M112,119.5v4.4c0,1.2-1,2.1-2.1,2.1H88.3c-1.2,0-2.1-1-2.1-2.1v-4.4c0-1.2,1-2.1,2.1-2.1h21.6
	C111,117.4,112,118.2,112,119.5L112,119.5z"/>
<path class="st1" d="M123.9,113c-1.2,0-2.2,1-2.2,2.2s1,2.2,2.2,2.2h14.8c1.2,0,2.2-1,2.2-2.2s-1-2.2-2.2-2.2H123.9z"/>
<path class="st1" d="M140.9,96.4V64.2c0-3.6-2.9-6.5-6.5-6.5H88.2c-3.6,0-6.5,2.9-6.5,6.5v37.6c0,3.6,2.9,6.5,6.5,6.5
	c49.5,0,46.3,0,46.9,0c3.3-0.3,5.8-3,5.8-6.4V96.4z M134.4,104H88.2c-1.2,0-2.1-1-2.1-2.1v-3.2h7c1.2,0,2.2-1,2.2-2.2
	c0-1.2-1-2.2-2.2-2.2h-7V64.2c0-1.2,1-2.1,2.1-2.1h46.2c1.2,0,2.1,1,2.1,2.1v30h-35.9c-1.2,0-2.2,1-2.2,2.2s1,2.2,2.2,2.2h35.9v3.2
	C136.6,103,135.6,104,134.4,104L134.4,104z"/>
<path class="st1" d="M199.3,64.1H197v-8.3c0-0.7-0.3-1.2-0.8-1.7l-8.8-7.2c-1-0.7-2.3-0.6-3,0.3c-0.7,1-0.6,2.3,0.3,3l8,6.5v7.3
	h-2.3c-3.6,0-6.5,2.9-6.5,6.5v2.8l-6.9,5c-0.6,0.4-0.8,1.1-0.8,1.8v13.7c0,1.2,1,2.2,2.2,2.2h14.4v48.4c0,8.7-7,15.6-15.6,15.6
	c-8.7,0-15.6-7-15.6-15.6v-19.5c0-0.1,0-0.1,0-0.3c0-0.3,0,0,0-4.8c0-3.6-2.9-6.5-6.5-6.5h-1.9V67.1c0-1.2-1-2.2-2.2-2.2
	c-1.2,0-2.2,1-2.2,2.2v113.3H74.1V52.7c0-1.2,1-2.1,2.1-2.1h70.2c1.2,0,2.1,1,2.1,2.1v7.5c0,1.2,1,2.2,2.2,2.2c1.2,0,2.2-1,2.2-2.2
	v-7.5c0-3.6-2.9-6.5-6.5-6.5H76.3c-3.6,0-6.5,2.9-6.5,6.5v127.6h-5c-3.6,0-6.6,3-6.6,6.6c0,3.6,3,6.6,6.6,6.6h7c1.2,0,2.2-1,2.2-2.2
	c0-1.2-1-2.2-2.2-2.2h-7c-1.2,0-2.3-1.1-2.3-2.3s1.1-2.3,2.3-2.3h93.3c1.2,0,2.3,1.1,2.3,2.3s-1.1,2.3-2.3,2.3H79.3
	c-1.2,0-2.2,1-2.2,2.2c0,1.2,1,2.2,2.2,2.2h78.8c3.6,0,6.6-3,6.6-6.6c0-3.6-3-6.6-6.6-6.6h-5.3v-50c1.9,0,2.8,0.1,4-0.4V144
	c0,11.1,9,20,20,20c11.1,0,20-9,20-20V95.6h2.3c3.6,0,6.5-2.9,6.5-6.5V70.4C205.7,66.8,202.8,64.1,199.3,64.1L199.3,64.1z
	 M154.8,126h-1.9v-8.7h1.9c1.2,0,2.1,1,2.1,2.1v4.4C156.9,125,155.9,126,154.8,126L154.8,126z M180.3,80.9l3.5-2.5
	c0,11.6-0.1,11.5,0.4,12.9h-3.9V80.9z M190.2,91.4c-1.2,0-2.1-1-2.1-2.1V70.4c0-1.2,1-2.1,2.1-2.1h9.1c1.2,0,2.1,1,2.1,2.1v18.8
	c0,1.2-1,2.1-2.1,2.1L190.2,91.4L190.2,91.4z"/>
</svg>
