<?xml version="1.0" encoding="utf-8"?>
<!-- Generator: Adobe Illustrator 24.2.1, SVG Export Plug-In . SVG Version: 6.00 Build 0)  -->
<svg version="1.1" id="Layer_1" xmlns="http://www.w3.org/2000/svg" xmlns:xlink="http://www.w3.org/1999/xlink" x="0px" y="0px"
	 viewBox="0 0 250 250" style="enable-background:new 0 0 250 250;" xml:space="preserve">
<style type="text/css">
	.st0{fill:#333333;}
	.st1{fill:#FFC500;}
</style>
<path class="st0" d="M72,210.4c11.8,0,22.6-6.6,27.9-17h52.5c5.4,10.4,16.1,17,27.9,17c12.4,0,23.6-7.3,28.7-18.8
	c0.4-0.9,0.4-2-0.2-2.7s-1.4-1.3-2.3-1.3h-23.3v-17h23.3c0.9,0,1.8-0.5,2.3-1.3s0.5-1.8,0.2-2.7c-5-11.5-16.3-18.8-28.7-18.8
	c-6.3,0-12.2,1.8-17,5.2v-5.2h-5.7v9.9c-2,2.1-3.8,4.5-5.2,7.2h-23.5v-20.8l15.2-5c1.1-0.4,2-1.4,2-2.7v-8.6h14.3
	c7.9,0,14.3,6.4,14.3,14.3h5.7c0-10.9-9-19.9-19.9-19.9h-17h-2.9v-9.5c8.4-5,14.3-14.1,14.3-24.7V73.8h14.3V68h-14.3V56.6
	c0-9.5-7.7-17-17-17h-22.7c-9.5,0-17,7.7-17,17V68H86.8c-1.6,0-2.9,1.3-2.9,2.9v17c0,1.6,1.3,2.9,2.9,2.9h2.9v14.3
	c0,0.9,0.5,1.8,1.3,2.3l8.6,5.7l3.2-4.7l-7.3-4.8V91h3c0.9,9.3,6.4,17.4,14.1,21.9v9.5h-2.9h-17c-10.9,0-19.9,9-19.9,19.9h5.7
	c0-7.9,6.4-14.3,14.3-14.3h14.3v8.6c0,1.3,0.7,2.3,2,2.7l15.2,5v20.8H99.9c-1.4-2.7-3-5-5.2-7.2v-9.9h-5.6v5.2
	c-5-3.2-10.9-5.2-17-5.2c-17.4,0-31.3,14.1-31.3,31.3C40.6,196.5,54.8,210.4,72,210.4z M97.8,85.1h-8.6V73.6h8.6V85.1z M140.4,134.3
	l-7.3,2.5l5.9-9h1.3v6.4H140.4z M117.6,122.1v-7c2.7,0.9,5.6,1.3,8.6,1.3c3,0,5.9-0.5,8.6-1.3v7H117.6z M103.3,56.6
	c0-6.3,5.2-11.5,11.5-11.5h22.7c6.3,0,11.5,5.2,11.5,11.5V68h-45.7C103.3,68,103.3,56.6,103.3,56.6z M103.3,87.9V73.6H149v14.3
	c0,12.5-10.2,22.7-22.7,22.7C113.5,110.7,103.3,100.5,103.3,87.9z M111.9,134.3v-6.4h1.3l5.9,9L111.9,134.3z M120.1,127.9h12.2
	l-6.1,9.1L120.1,127.9z M72,153.5c10.2,0,19.3,6.1,23.5,15.4c0.5,1.1,1.4,1.8,2.7,1.8h56.1c1.1,0,2.1-0.7,2.7-1.8
	c4.1-9.3,13.3-15.4,23.5-15.4c8.6,0,16.7,4.3,21.3,11.5h-21.3c-1.6,0-2.9,1.3-2.9,2.9v22.7c0,1.6,1.3,2.9,2.9,2.9h21.3
	c-4.7,7-12.7,11.5-21.3,11.5c-10.2,0-19.3-6.1-23.5-15.4c-0.5-1.1-1.4-1.8-2.7-1.8H98.1c-1.1,0-2.1,0.7-2.7,1.8
	c-4.1,9.3-13.3,15.4-23.5,15.4c-14.1,0-25.6-11.5-25.6-25.6C46.4,164.9,57.8,153.5,72,153.5z"/>
<path class="st1" d="M103.3,56.6c0-6.3,5.2-11.5,11.5-11.5h22.7c6.3,0,11.5,5.2,11.5,11.5V68h-45.7C103.3,68,103.3,56.6,103.3,56.6z
	"/>
<path class="st1" d="M56.2,191.3l14.5,7.5c0.4,0.2,0.9,0.4,1.3,0.4c0.5,0,1.1-0.2,1.4-0.4l14.3-8.6c0.9-0.5,1.4-1.4,1.4-2.5v-17
	c0-1.1-0.5-2-1.4-2.5l-14.3-8.6c-0.9-0.5-2-0.5-2.9,0l-14.3,8.6c-0.9,0.5-1.4,1.4-1.4,2.3l-0.2,18.1
	C54.6,189.7,55.3,190.7,56.2,191.3z M60.7,172.3l11.5-6.8l11.5,6.8v13.8l-11.5,7L60.7,187V172.3z"/>
<rect x="97.8" y="176.2" class="st0" width="57" height="5.7"/>
<rect x="123.4" y="79.3" class="st0" width="5.7" height="14.3"/>
<rect x="134.7" y="153.5" class="st0" width="17" height="5.7"/>
</svg>
