<svg width="1855" height="375" viewBox="0 0 1855 375" fill="none" xmlns="http://www.w3.org/2000/svg">
<path d="M0.613647 187.457C0.613647 47.1018 47.3981 0.317383 187.753 0.317383C328.108 0.317383 374.893 47.1018 374.893 187.457C374.893 327.811 328.108 374.596 187.753 374.596C47.3981 374.596 0.613647 327.811 0.613647 187.457Z" fill="#FFC158"/>
<path fill-rule="evenodd" clip-rule="evenodd" d="M190.031 88.554L113.09 206.217C110.649 209.95 113.327 214.901 117.787 214.901H157.417H177.852H188.325L175.258 286.234C174.155 292.258 182.123 295.443 185.475 290.317L262.416 172.654C264.857 168.921 262.179 163.97 257.72 163.97H210.256H197.655H187.181L200.248 92.6367C201.352 86.6123 193.383 83.4281 190.031 88.554Z" fill="#FFFEFC"/>
<path d="M600.048 85.9912C496.391 85.9912 470.477 108.314 462.503 152.561C454.928 196.808 474.065 215.145 562.572 215.145C614.4 215.145 629.151 215.145 626.759 227.901C624.367 241.056 609.616 241.056 572.539 241.056C535.461 241.056 520.71 241.056 523.501 226.307H446.157C436.988 278.128 460.111 292.877 563.768 292.877C667.424 292.877 695.731 278.128 704.9 226.307C712.874 182.059 690.149 163.324 601.244 163.324C549.415 163.324 534.664 162.925 537.056 150.568C539.448 137.414 554.199 137.414 591.277 137.414C620.779 137.414 643.105 137.414 640.314 152.163H714.07C722.044 106.72 703.704 85.9912 600.048 85.9912Z" fill="#0F0F0F"/>
<path d="M941.734 93.167L924.676 189.235C918.178 226.307 888.936 241.056 858.882 241.056C828.827 241.056 804.865 226.307 811.769 189.235L828.827 93.167H745.974L728.51 189.235C715.108 262.98 754.91 292.877 822.735 292.877C875.533 292.877 909.649 270.554 909.649 270.554L914.523 285.303H989.659L1024.18 93.167H941.734Z" fill="#0F0F0F"/>
<path d="M1210.92 85.9912C1158.12 85.9912 1131.72 108.314 1131.72 108.314L1134.57 93.565H1051.71L1001.35 374.594H1084.21L1102.89 270.952C1102.89 270.952 1121.57 293.275 1174.37 293.275C1242.19 293.275 1298.65 270.952 1313.27 189.633C1327.48 107.915 1278.75 85.9912 1210.92 85.9912ZM1230.01 189.235C1223.51 226.307 1194.27 241.056 1164.22 241.056C1134.16 241.056 1110.2 226.307 1117.1 189.235C1123.6 152.163 1152.84 137.414 1182.9 137.414C1212.95 137.414 1236.51 152.163 1230.01 189.235Z" fill="#0F0F0F"/>
<path d="M1485.73 85.9912C1395.56 85.9912 1341.55 113.895 1328.14 187.64C1314.74 261.385 1358.6 292.877 1448.77 292.877C1512.13 292.877 1546.65 281.715 1579.14 253.014L1530.81 222.32C1520.25 228.698 1508.88 241.056 1458.11 241.056C1423.99 241.056 1408.56 228.3 1409.37 202.389H1603.51C1604.73 197.606 1605.94 192.822 1606.76 187.64C1619.75 113.496 1575.89 85.9912 1485.73 85.9912ZM1417.49 165.317C1427.24 144.589 1442.27 137.414 1476.39 137.414C1510.09 137.414 1523.09 144.19 1525.12 165.317H1417.49Z" fill="#0F0F0F"/>
<path d="M1723.5 107.915L1726.35 93.1664H1643.49L1608.97 285.303H1691.83C1691.83 285.303 1697.11 255.805 1706.45 203.984C1715.79 152.163 1754.78 144.987 1784.83 144.987C1814.48 144.987 1824.23 148.176 1843.72 152.561L1854.28 93.565C1843.72 90.3761 1818.54 85.9912 1795.39 85.9912C1742.59 85.9912 1723.5 107.915 1723.5 107.915Z" fill="#0F0F0F"/>
</svg>
